<svg version="1.2" xmlns="http://www.w3.org/2000/svg" viewBox="0 0 3000 2000" width="3000" height="2000">
	<title>8493-ai</title>
	<defs>
		<clipPath clipPathUnits="userSpaceOnUse" id="cp1">
			<path d="m1187.59 1283.33v-262.06c0-11.05 8.96-20 20-20h579.33c11.05 0 20 8.95 20 20v262.06c0 11.05-8.95 20-20 20h-579.33c-11.04 0-20-8.95-20-20z"/>
		</clipPath>
		<clipPath clipPathUnits="userSpaceOnUse" id="cp2">
			<path d="m2151.14 1283.33v-262.06c0-11.05 8.95-20 20-20h213.2c11.05 0 20 8.95 20 20v262.06c0 11.05-8.95 20-20 20h-213.2c-11.05 0-20-8.95-20-20z"/>
		</clipPath>
		<clipPath clipPathUnits="userSpaceOnUse" id="cp3">
			<path d="m2424.25 1169.94v-148.67c0-11.05 8.96-20 20-20h145.26c11.05 0 20 8.95 20 20v282.06h-51.86c-73.67 0-133.4-59.72-133.4-133.39z"/>
		</clipPath>
		<clipPath clipPathUnits="userSpaceOnUse" id="cp4">
			<path d="m525.99 1283.33v-262.06c0-11.05 8.95-20 20-20h579.33c11.04 0 20 8.95 20 20v262.06c0 11.05-8.96 20-20 20h-579.33c-11.05 0-20-8.95-20-20z"/>
		</clipPath>
		<clipPath clipPathUnits="userSpaceOnUse" id="cp5">
			<path d="m2134.43 1021.27v584.12h-169.65-17.71-120.64v-584.12c0-11.05 8.95-20 20-20h100.64 17.71 149.65c11.04 0 20 8.95 20 20z"/>
		</clipPath>
	</defs>
	<style>
		.s0 { fill: #ebf2f9 } 
		.s1 { fill: #d5e7f7 } 
		.s2 { fill: #c4d9ed } 
		.s3 { fill: #1c2948 } 
		.s4 { fill: #2d3a62 } 
		.s5 { fill: #98bdf4 } 
		.s6 { fill: #a8d29f } 
		.s7 { fill: #82b378 } 
		.s8 { fill: #b64c41 } 
		.s9 { fill: #f1a34f } 
		.s10 { fill: #163560 } 
		.s11 { fill: #d9935c } 
		.s12 { fill: #ffffff } 
		.s13 { fill: #466aa5 } 
		.s14 { fill: #2b478b } 
		.s15 { fill: #233862 } 
		.s16 { fill: #cb7d45 } 
		.s17 { fill: #aa413e } 
		.s18 { fill: #d86713 } 
		.s19 { opacity: .4;fill: #d86713 } 
		.s20 { fill: #cb8757 } 
		.s21 { fill: #e7f0fd } 
		.s22 { fill: #da935b } 
		.s23 { fill: #739af0 } 
		.s24 { fill: #4a75cb } 
		.s25 { fill: #ffa412 } 
		.s26 { fill: #ed6058 } 
		.s27 { fill: #ab7041 } 
		.s28 { fill: #9c5f33 } 
		.s29 { fill: #74acbe } 
		.s30 { fill: #9ed9f0 } 
		.s31 { fill: #d6716b } 
		.s32 { fill: #a05f32 } 
		.s33 { fill: #af7041 } 
		.s34 { fill: #283250 } 
	</style>
	<g id="Layer 1">
		<g id="&lt;Group&gt;">
			<g id="&lt;Group&gt;">
				<path id="&lt;Path&gt;" class="s0" d="m545.1 872.1c395.9 68.3 163.8-687.5 703.2-366.7 214.5 127.6 523.4-26.8 819.2 57.6 271.6 77.5 204.7 331.8 178.4 415-53.1 168.1 211.4 101 364.7 173.2 240.4 113.3 215.1 571-12.1 572.9-227.1 1.9-2031.4-4.8-2031.4-4.8 0 0-99.1-64.2-151.8-196.4-107.9-271-218.9-711 129.8-650.8z"/>
				<g id="&lt;Group&gt;">
					<g id="&lt;Group&gt;">
						<path id="&lt;Path&gt;" class="s1" d="m2328.5 732.3v988.4h-147-34.4-3.1-181.4-172.4-22.9-67.8-99.6-43.4-47.3-95.2-47.8-156.2-84.5-89.9-32.2-107.4-67-118.6-20.9-125.6v-509.4-585.5h146.5v317.2h118.6v116.7h206.6v-67.8h89.9v-269h240.7v-455.6l190.3-63v303.2h43.4v-227.7l190.3 72v267.1h172.4v-194.8h184.5v194.8h34.4v113.4z"/>
						<path id="&lt;Path&gt;" class="s2" d="m1523 337.4h-128.4v-47h128.4z"/>
						<path id="&lt;Path&gt;" class="s2" d="m1523 425.7h-128.4v-47h128.4z"/>
						<path id="&lt;Path&gt;" class="s2" d="m1523 505.2h-128.4v-47h128.4z"/>
						<g id="&lt;Group&gt;">
							<path id="&lt;Path&gt;" class="s2" d="m713.1 839.5v72.6h-149.2v-72.6z"/>
							<path id="&lt;Path&gt;" class="s2" d="m563.9 1062.2h147.8v72.6h-147.8z"/>
							<path id="&lt;Path&gt;" class="s2" d="m563.9 1171.9h147.8v72.5h-147.8z"/>
						</g>
						<path id="&lt;Path&gt;" class="s2" d="m709.3 1359.1h-147.8v-72.6h147.8z"/>
						<path id="&lt;Path&gt;" class="s2" d="m561.5 1398.9h147.8v72.5h-147.8z"/>
						<path id="&lt;Path&gt;" class="s2" d="m709.3 1586.1h-147.8v-72.6h147.8z"/>
						<g id="&lt;Group&gt;">
							<path id="&lt;Path&gt;" class="s2" d="m1760 505.2h-135.1v-47h135.1z"/>
							<path id="&lt;Path&gt;" class="s2" d="m1760 426.4h-135.1v-47h135.1z"/>
							<path id="&lt;Path&gt;" class="s2" d="m1760 535.2v47h-368.7v-47z"/>
							<path id="&lt;Path&gt;" class="s2" d="m1391.3 605.9h368.7v47h-368.7z"/>
							<path id="&lt;Path&gt;" class="s2" d="m1391.3 676.1h368.7v45.2h-368.7z"/>
						</g>
						<path id="&lt;Path&gt;" class="s2" d="m563.9 952.6h147.8v72.6h-147.8z"/>
						<g id="&lt;Group&gt;">
							<path id="&lt;Path&gt;" class="s2" d="m1162.3 767h32.3v45.4h-32.3z"/>
							<path id="&lt;Path&gt;" class="s2" d="m1222.7 767h32.2v45.4h-32.2z"/>
							<path id="&lt;Path&gt;" class="s2" d="m1281.6 767h32.3v45.4h-32.3z"/>
							<path id="&lt;Path&gt;" class="s2" d="m1337.6 767h32.2v45.4h-32.2z"/>
							<path id="&lt;Path&gt;" class="s2" d="m1394.6 767h32.2v45.4h-32.2z"/>
							<path id="&lt;Path&gt;" class="s2" d="m1452.2 767h32.3v45.4h-32.3z"/>
							<path id="&lt;Path&gt;" class="s2" d="m1512.5 767h32.3v45.4h-32.3z"/>
							<path id="&lt;Path&gt;" class="s2" d="m1571.5 767h32.3v45.4h-32.3z"/>
							<path id="&lt;Path&gt;" class="s2" d="m1627.4 767h32.3v45.4h-32.3z"/>
							<path id="&lt;Path&gt;" class="s2" d="m1684.4 767h32.3v45.4h-32.3z"/>
							<path id="&lt;Path&gt;" class="s2" d="m1743.8 767h32.3v45.4h-32.3z"/>
							<path id="&lt;Path&gt;" class="s2" d="m1804.1 767h32.3v45.4h-32.3z"/>
							<path id="&lt;Path&gt;" class="s2" d="m1863.1 767h32.3v45.4h-32.3z"/>
							<path id="&lt;Path&gt;" class="s2" d="m1919 767h32.3v45.4h-32.3z"/>
							<path id="&lt;Path&gt;" class="s2" d="m1976 767h32.3v45.4h-32.3z"/>
							<path id="&lt;Path&gt;" class="s2" d="m2033.7 767h32.2v45.4h-32.2z"/>
							<path id="&lt;Path&gt;" class="s2" d="m2094 767h32.3v45.4h-32.3z"/>
							<path id="&lt;Path&gt;" class="s2" d="m2153 767h32.3v45.4h-32.3z"/>
							<path id="&lt;Path&gt;" class="s2" d="m2208.9 767h32.3v45.4h-32.3z"/>
							<path id="&lt;Path&gt;" class="s2" d="m2298.2 767v45.4h-32.3v-45.4z"/>
							<path id="&lt;Path&gt;" class="s2" d="m1162.3 847.2h32.3v45.5h-32.3z"/>
							<path id="&lt;Path&gt;" class="s2" d="m1222.7 847.2h32.2v45.5h-32.2z"/>
							<path id="&lt;Path&gt;" class="s2" d="m1281.6 847.2h32.3v45.5h-32.3z"/>
							<path id="&lt;Path&gt;" class="s2" d="m1337.6 847.2h32.2v45.5h-32.2z"/>
							<path id="&lt;Path&gt;" class="s2" d="m1394.6 847.2h32.2v45.5h-32.2z"/>
							<path id="&lt;Path&gt;" class="s2" d="m1452.2 847.2h32.3v45.5h-32.3z"/>
							<path id="&lt;Path&gt;" class="s2" d="m1512.5 847.2h32.3v45.5h-32.3z"/>
							<path id="&lt;Path&gt;" class="s2" d="m1571.5 847.2h32.3v45.5h-32.3z"/>
							<path id="&lt;Path&gt;" class="s2" d="m1627.4 847.2h32.3v45.5h-32.3z"/>
							<path id="&lt;Path&gt;" class="s2" d="m1684.4 847.2h32.3v45.5h-32.3z"/>
							<path id="&lt;Path&gt;" class="s2" d="m1743.8 847.2h32.3v45.5h-32.3z"/>
							<path id="&lt;Path&gt;" class="s2" d="m1804.1 847.2h32.3v45.5h-32.3z"/>
							<path id="&lt;Path&gt;" class="s2" d="m1863.1 847.2h32.3v45.5h-32.3z"/>
							<path id="&lt;Path&gt;" class="s2" d="m1919 847.2h32.3v45.5h-32.3z"/>
							<path id="&lt;Path&gt;" class="s2" d="m1976 847.2h32.3v45.5h-32.3z"/>
							<path id="&lt;Path&gt;" class="s2" d="m2033.7 847.2h32.2v45.5h-32.2z"/>
							<path id="&lt;Path&gt;" class="s2" d="m2094 847.2h32.3v45.5h-32.3z"/>
							<path id="&lt;Path&gt;" class="s2" d="m2153 847.2h32.3v45.5h-32.3z"/>
							<path id="&lt;Path&gt;" class="s2" d="m2208.9 847.2h32.3v45.5h-32.3z"/>
							<path id="&lt;Path&gt;" class="s2" d="m2265.9 847.2h32.3v45.5h-32.3z"/>
							<path id="&lt;Path&gt;" class="s2" d="m1162.3 926.2h32.3v45.5h-32.3z"/>
							<path id="&lt;Path&gt;" class="s2" d="m1222.7 926.2h32.2v45.5h-32.2z"/>
							<path id="&lt;Path&gt;" class="s2" d="m1281.6 926.2h32.3v45.5h-32.3z"/>
							<path id="&lt;Path&gt;" class="s2" d="m1337.6 926.2h32.2v45.5h-32.2z"/>
							<path id="&lt;Path&gt;" class="s2" d="m1394.6 926.2h32.2v45.5h-32.2z"/>
							<path id="&lt;Path&gt;" class="s2" d="m1452.2 926.2h32.3v45.5h-32.3z"/>
							<path id="&lt;Path&gt;" class="s2" d="m1512.5 926.2h32.3v45.5h-32.3z"/>
							<path id="&lt;Path&gt;" class="s2" d="m1571.5 926.2h32.3v45.5h-32.3z"/>
							<path id="&lt;Path&gt;" class="s2" d="m1627.4 926.2h32.3v45.5h-32.3z"/>
							<path id="&lt;Path&gt;" class="s2" d="m1684.4 926.2h32.3v45.5h-32.3z"/>
							<path id="&lt;Path&gt;" class="s2" d="m1743.8 926.2h32.3v45.5h-32.3z"/>
							<path id="&lt;Path&gt;" class="s2" d="m1804.1 926.2h32.3v45.5h-32.3z"/>
							<path id="&lt;Path&gt;" class="s2" d="m1863.1 926.2h32.3v45.5h-32.3z"/>
							<path id="&lt;Path&gt;" class="s2" d="m1919 926.2h32.3v45.5h-32.3z"/>
							<path id="&lt;Path&gt;" class="s2" d="m1976 926.2h32.3v45.5h-32.3z"/>
							<path id="&lt;Path&gt;" class="s2" d="m2033.7 926.2h32.2v45.5h-32.2z"/>
							<path id="&lt;Path&gt;" class="s2" d="m2094 926.2h32.3v45.5h-32.3z"/>
							<path id="&lt;Path&gt;" class="s2" d="m2153 926.2h32.3v45.5h-32.3z"/>
							<path id="&lt;Path&gt;" class="s2" d="m2208.9 926.2h32.3v45.5h-32.3z"/>
							<path id="&lt;Path&gt;" class="s2" d="m2265.9 926.2h32.3v45.5h-32.3z"/>
							<path id="&lt;Path&gt;" class="s2" d="m1162.3 1010.2h32.3v45.4h-32.3z"/>
							<path id="&lt;Path&gt;" class="s2" d="m1222.7 1010.2h32.2v45.4h-32.2z"/>
							<path id="&lt;Path&gt;" class="s2" d="m1281.6 1010.2h32.3v45.4h-32.3z"/>
							<path id="&lt;Path&gt;" class="s2" d="m1337.6 1010.2h32.2v45.4h-32.2z"/>
							<path id="&lt;Path&gt;" class="s2" d="m1394.6 1010.2h32.2v45.4h-32.2z"/>
							<path id="&lt;Path&gt;" class="s2" d="m1452.2 1010.2h32.3v45.4h-32.3z"/>
							<path id="&lt;Path&gt;" class="s2" d="m1512.5 1010.2h32.3v45.4h-32.3z"/>
							<path id="&lt;Path&gt;" class="s2" d="m1571.5 1010.2h32.3v45.4h-32.3z"/>
							<path id="&lt;Path&gt;" class="s2" d="m1627.4 1010.2h32.3v45.4h-32.3z"/>
							<path id="&lt;Path&gt;" class="s2" d="m1684.4 1010.2h32.3v45.4h-32.3z"/>
							<path id="&lt;Path&gt;" class="s2" d="m1743.8 1010.2h32.3v45.4h-32.3z"/>
							<path id="&lt;Path&gt;" class="s2" d="m1804.1 1010.2h32.3v45.4h-32.3z"/>
							<path id="&lt;Path&gt;" class="s2" d="m1863.1 1010.2h32.3v45.4h-32.3z"/>
							<path id="&lt;Path&gt;" class="s2" d="m1919 1010.2h32.3v45.4h-32.3z"/>
							<path id="&lt;Path&gt;" class="s2" d="m1976 1010.2h32.3v45.4h-32.3z"/>
							<path id="&lt;Path&gt;" class="s2" d="m2033.7 1010.2h32.2v45.4h-32.2z"/>
							<path id="&lt;Path&gt;" class="s2" d="m2094 1010.2h32.3v45.4h-32.3z"/>
							<path id="&lt;Path&gt;" class="s2" d="m2153 1010.2h32.3v45.4h-32.3z"/>
							<path id="&lt;Path&gt;" class="s2" d="m2208.9 1010.2h32.3v45.4h-32.3z"/>
							<path id="&lt;Path&gt;" class="s2" d="m2265.9 1010.2h32.3v45.4h-32.3z"/>
							<path id="&lt;Path&gt;" class="s2" d="m1162.3 1090.4h32.3v45.5h-32.3z"/>
							<path id="&lt;Path&gt;" class="s2" d="m1222.7 1090.4h32.2v45.5h-32.2z"/>
							<path id="&lt;Path&gt;" class="s2" d="m1281.6 1090.4h32.3v45.5h-32.3z"/>
							<path id="&lt;Path&gt;" class="s2" d="m1337.6 1090.4h32.2v45.5h-32.2z"/>
							<path id="&lt;Path&gt;" class="s2" d="m1394.6 1090.4h32.2v45.5h-32.2z"/>
							<path id="&lt;Path&gt;" class="s2" d="m1452.2 1090.4h32.3v45.5h-32.3z"/>
							<path id="&lt;Path&gt;" class="s2" d="m1512.5 1090.4h32.3v45.5h-32.3z"/>
							<path id="&lt;Path&gt;" class="s2" d="m1571.5 1090.4h32.3v45.5h-32.3z"/>
							<path id="&lt;Path&gt;" class="s2" d="m1627.4 1090.4h32.3v45.5h-32.3z"/>
							<path id="&lt;Path&gt;" class="s2" d="m1684.4 1090.4h32.3v45.5h-32.3z"/>
							<path id="&lt;Path&gt;" class="s2" d="m1743.8 1090.4h32.3v45.5h-32.3z"/>
							<path id="&lt;Path&gt;" class="s2" d="m1804.1 1090.4h32.3v45.5h-32.3z"/>
							<path id="&lt;Path&gt;" class="s2" d="m1863.1 1090.4h32.3v45.5h-32.3z"/>
							<path id="&lt;Path&gt;" class="s2" d="m1919 1090.4h32.3v45.5h-32.3z"/>
							<path id="&lt;Path&gt;" class="s2" d="m1976 1090.4h32.3v45.5h-32.3z"/>
							<path id="&lt;Path&gt;" class="s2" d="m2033.7 1090.4h32.2v45.5h-32.2z"/>
							<path id="&lt;Path&gt;" class="s2" d="m2094 1090.4h32.3v45.5h-32.3z"/>
							<path id="&lt;Path&gt;" class="s2" d="m2208.9 1090.4h32.3v45.5h-32.3z"/>
							<path id="&lt;Path&gt;" class="s2" d="m2153 1090.4h32.3v45.5h-32.3z"/>
							<path id="&lt;Path&gt;" class="s2" d="m2265.9 1090.4h32.3v45.5h-32.3z"/>
							<path id="&lt;Path&gt;" class="s2" d="m1162.3 1169.4h32.3v45.5h-32.3z"/>
							<path id="&lt;Path&gt;" class="s2" d="m1222.7 1169.4h32.2v45.5h-32.2z"/>
							<path id="&lt;Path&gt;" class="s2" d="m1281.6 1169.4h32.3v45.5h-32.3z"/>
							<path id="&lt;Path&gt;" class="s2" d="m1337.6 1169.4h32.2v45.5h-32.2z"/>
							<path id="&lt;Path&gt;" class="s2" d="m1394.6 1169.4h32.2v45.5h-32.2z"/>
							<path id="&lt;Path&gt;" class="s2" d="m1452.2 1169.4h32.3v45.5h-32.3z"/>
							<path id="&lt;Path&gt;" class="s2" d="m1512.5 1169.4h32.3v45.5h-32.3z"/>
							<path id="&lt;Path&gt;" class="s2" d="m1571.5 1169.4h32.3v45.5h-32.3z"/>
							<path id="&lt;Path&gt;" class="s2" d="m1627.4 1169.4h32.3v45.5h-32.3z"/>
							<path id="&lt;Path&gt;" class="s2" d="m1684.4 1169.4h32.3v45.5h-32.3z"/>
							<path id="&lt;Path&gt;" class="s2" d="m1743.8 1169.4h32.3v45.5h-32.3z"/>
							<path id="&lt;Path&gt;" class="s2" d="m1804.1 1169.4h32.3v45.5h-32.3z"/>
							<path id="&lt;Path&gt;" class="s2" d="m1863.1 1169.4h32.3v45.5h-32.3z"/>
							<path id="&lt;Path&gt;" class="s2" d="m1919 1169.4h32.3v45.5h-32.3z"/>
							<path id="&lt;Path&gt;" class="s2" d="m1976 1169.4h32.3v45.5h-32.3z"/>
							<path id="&lt;Path&gt;" class="s2" d="m2033.7 1169.4h32.2v45.5h-32.2z"/>
							<path id="&lt;Path&gt;" class="s2" d="m2094 1169.4h32.3v45.5h-32.3z"/>
							<path id="&lt;Path&gt;" class="s2" d="m2208.9 1169.4h32.3v45.5h-32.3z"/>
							<path id="&lt;Path&gt;" class="s2" d="m2265.9 1169.4h32.3v45.5h-32.3z"/>
						</g>
						<path id="&lt;Path&gt;" class="s2" d="m881.5 772.8v-94.6h3.9v94.6h53.2v116.7h-109.6v-116.7z"/>
						<path id="&lt;Path&gt;" class="s2" d="m563.9 698.5v-72.6h30.8v-31.5h3.9v31.5h112.5 2 21.3v-31.5h3.9v31.5h27.3v317.2h-54.5v-136.7h-147.2v-72.5h147.2v-35.4z"/>
						<path id="&lt;Path&gt;" class="s1" d="m2541 1002.4v97.4h-7.6v-97.4z"/>
					</g>
					<path id="&lt;Path&gt;" class="s2" d="m789.8 1286.5h738.9v432.2h-738.9z"/>
					<path id="&lt;Path&gt;" class="s1" d="m1460.3 1330.8h39.4v60.2h-39.4z"/>
					<path id="&lt;Path&gt;" class="s1" d="m1390.8 1330.8h39.4v60.2h-39.4z"/>
					<path id="&lt;Path&gt;" class="s1" d="m1320.9 1330.8h39.4v60.2h-39.4z"/>
					<path id="&lt;Path&gt;" class="s1" d="m1251.4 1330.8h39.4v60.2h-39.4z"/>
					<path id="&lt;Path&gt;" class="s1" d="m1179.9 1330.8h39.4v60.2h-39.4z"/>
					<path id="&lt;Path&gt;" class="s1" d="m1110.4 1330.8h39.4v60.2h-39.4z"/>
					<path id="&lt;Path&gt;" class="s1" d="m1040.5 1330.8h39.4v60.2h-39.4z"/>
					<path id="&lt;Path&gt;" class="s1" d="m971 1330.8h39.4v60.2h-39.4z"/>
					<path id="&lt;Path&gt;" class="s1" d="m898.2 1330.8h39.4v60.2h-39.4z"/>
					<path id="&lt;Path&gt;" class="s1" d="m828.7 1330.8h39.4v60.2h-39.4z"/>
					<path id="&lt;Path&gt;" class="s1" d="m1460.3 1419.8h39.4v60.1h-39.4z"/>
					<path id="&lt;Path&gt;" class="s1" d="m1390.8 1419.8h39.4v60.1h-39.4z"/>
					<path id="&lt;Path&gt;" class="s1" d="m1320.9 1419.8h39.4v60.1h-39.4z"/>
					<path id="&lt;Path&gt;" class="s1" d="m1251.4 1419.8h39.4v60.1h-39.4z"/>
					<path id="&lt;Path&gt;" class="s1" d="m1179.9 1419.8h39.4v60.1h-39.4z"/>
					<path id="&lt;Path&gt;" class="s1" d="m1110.4 1419.8h39.4v60.1h-39.4z"/>
					<path id="&lt;Path&gt;" class="s1" d="m1040.5 1419.8h39.4v60.1h-39.4z"/>
					<path id="&lt;Path&gt;" class="s1" d="m971 1419.8h39.4v60.1h-39.4z"/>
					<path id="&lt;Path&gt;" class="s1" d="m898.2 1419.8h39.4v60.1h-39.4z"/>
					<path id="&lt;Path&gt;" class="s1" d="m828.7 1419.8h39.4v60.1h-39.4z"/>
					<path id="&lt;Path&gt;" class="s1" d="m1460.3 1515.3h39.4v60.2h-39.4z"/>
					<path id="&lt;Path&gt;" class="s1" d="m1390.8 1515.3h39.4v60.2h-39.4z"/>
					<path id="&lt;Path&gt;" class="s1" d="m1320.9 1515.3h39.4v60.2h-39.4z"/>
					<path id="&lt;Path&gt;" class="s1" d="m1251.4 1515.3h39.4v60.2h-39.4z"/>
					<path id="&lt;Path&gt;" class="s1" d="m1179.9 1515.3h39.4v60.2h-39.4z"/>
					<path id="&lt;Path&gt;" class="s1" d="m1110.4 1515.3h39.4v60.2h-39.4z"/>
					<path id="&lt;Path&gt;" class="s1" d="m1040.5 1515.3h39.4v60.2h-39.4z"/>
					<path id="&lt;Path&gt;" class="s1" d="m971 1515.3h39.4v60.2h-39.4z"/>
					<path id="&lt;Path&gt;" class="s1" d="m898.2 1515.3h39.4v60.2h-39.4z"/>
					<path id="&lt;Path&gt;" class="s1" d="m828.7 1515.3h39.4v60.2h-39.4z"/>
					<path id="&lt;Path&gt;" class="s1" d="m1460.3 1604.3h39.4v60.1h-39.4z"/>
					<path id="&lt;Path&gt;" class="s1" d="m1390.8 1604.3h39.4v60.1h-39.4z"/>
					<path id="&lt;Path&gt;" class="s1" d="m1320.9 1604.3h39.4v60.1h-39.4z"/>
					<path id="&lt;Path&gt;" class="s1" d="m1251.4 1604.3h39.4v60.1h-39.4z"/>
					<path id="&lt;Path&gt;" class="s1" d="m1179.9 1604.3h39.4v60.1h-39.4z"/>
					<path id="&lt;Path&gt;" class="s1" d="m1110.4 1604.3h39.4v60.1h-39.4z"/>
					<path id="&lt;Path&gt;" class="s1" d="m1040.5 1604.3h39.4v60.1h-39.4z"/>
					<path id="&lt;Path&gt;" class="s1" d="m971 1604.3h39.4v60.1h-39.4z"/>
					<path id="&lt;Path&gt;" class="s1" d="m898.2 1604.3h39.4v60.1h-39.4z"/>
					<path id="&lt;Path&gt;" class="s1" d="m828.7 1604.3h39.4v60.1h-39.4z"/>
					<path id="&lt;Path&gt;" class="s2" d="m1044.3 1306.3h-154.1v-134.4l154.1 59z"/>
					<path id="&lt;Path&gt;" class="s2" d="m1804.2 1457.1l352.9-122.2v383.8h-352.9z"/>
					<path id="&lt;Path&gt;" class="s1" d="m1813.6 1469.8h334.1v11.8h-334.1z"/>
					<path id="&lt;Path&gt;" class="s1" d="m1813.6 1507.9h334.1v11.9h-334.1z"/>
					<path id="&lt;Path&gt;" class="s1" d="m1813.6 1546h334.1v11.9h-334.1z"/>
					<path id="&lt;Path&gt;" class="s1" d="m1813.6 1584.1h334.1v11.9h-334.1z"/>
					<path id="&lt;Path&gt;" class="s1" d="m1813.6 1622.3h334.1v11.8h-334.1z"/>
					<path id="&lt;Path&gt;" class="s1" d="m1813.6 1660.4h334.1v11.8h-334.1z"/>
					<path id="&lt;Path&gt;" class="s2" d="m860.5 1171.9h29.7v114.6h-29.7z"/>
					<path id="&lt;Path&gt;" class="s1" d="m922.7 1268.8v-39.4h60.2v39.4z"/>
					<g id="&lt;Group&gt;">
						<path id="&lt;Path&gt;" class="s2" d="m2105.1 440.1h20.4v173.4h-20.4z"/>
						<path id="&lt;Path&gt;" class="s2" d="m2064.4 440.1h20.4v173.4h-20.4z"/>
						<path id="&lt;Path&gt;" class="s2" d="m2024.3 440.1h20.4v173.4h-20.4z"/>
						<path id="&lt;Path&gt;" class="s2" d="m1982.8 440.1h20.4v173.4h-20.4z"/>
					</g>
				</g>
			</g>
			<path id="&lt;Path&gt;" class="s3" d="m2522.6 1590.1h-1680.8v-131.3h1680.8z"/>
			<g id="&lt;Group&gt;">
				<g id="&lt;Group&gt;">
					<path id="&lt;Path&gt;" class="s4" d="m2447.1 1611.3c0 60.3-49 109.3-109.3 109.3-60.4 0-109.3-49-109.3-109.3 0-60.4 48.9-109.3 109.3-109.3 60.3 0 109.3 48.9 109.3 109.3z"/>
				</g>
				<path id="&lt;Compound Path&gt;" fill-rule="evenodd" class="s5" d="m2405.5 1611.3c0 37.4-30.3 67.7-67.7 67.7-37.4 0-67.8-30.3-67.8-67.7 0-37.4 30.4-67.8 67.8-67.8 37.4 0 67.7 30.4 67.7 67.8zm-58.5-32.7c5.1 1.4 9.8 4 13.6 7.5l23.5-14.5c-9.3-10.8-22.3-18.4-37.1-20.6zm-55.6-7l23.5 14.5c3.8-3.5 8.5-6.1 13.6-7.5v-27.6c-14.8 2.2-27.8 9.8-37.1 20.6zm13.6 48.8c-0.8-2.9-1.2-6-1.2-9.1 0-3.3 0.4-6.5 1.3-9.5l-23.5-14.5c-3.1 7.4-4.8 15.5-4.8 24 0 8.4 1.7 16.4 4.7 23.6zm23.5 23.6c-5.2-1.5-9.9-4.2-13.8-7.7l-23.5 14.4c9.3 11 22.4 18.6 37.3 20.9zm9.3-17.3c8.5 0 15.3-6.9 15.3-15.4 0-8.5-6.8-15.4-15.3-15.4-8.5 0-15.4 6.9-15.4 15.4 0 8.5 6.9 15.4 15.4 15.4zm46.5 24l-23.5-14.4c-3.8 3.5-8.5 6.2-13.8 7.7v27.6c14.9-2.3 28-9.9 37.3-20.9zm9.7-15.8c3.1-7.2 4.8-15.2 4.8-23.6 0-8.5-1.8-16.6-4.9-24l-23.5 14.5c0.9 3 1.4 6.2 1.4 9.5 0 3.1-0.5 6.2-1.3 9.1z"/>
			</g>
			<g id="&lt;Group&gt;">
				<g id="&lt;Group&gt;">
					<g id="&lt;Group&gt;">
						<path id="&lt;Path&gt;" class="s4" d="m1087.1 1611.3c0 60.3-49 109.3-109.3 109.3-60.4 0-109.3-49-109.3-109.3 0-60.4 48.9-109.3 109.3-109.3 60.3 0 109.3 48.9 109.3 109.3z"/>
					</g>
				</g>
				<path id="&lt;Compound Path&gt;" fill-rule="evenodd" class="s5" d="m1045.5 1611.3c0 37.4-30.3 67.7-67.7 67.7-37.4 0-67.8-30.3-67.8-67.7 0-37.4 30.4-67.8 67.8-67.8 37.4 0 67.7 30.4 67.7 67.8zm-58.5-32.7c5.1 1.4 9.8 4 13.6 7.5l23.5-14.5c-9.3-10.8-22.3-18.4-37.1-20.6zm-55.6-7l23.5 14.5c3.8-3.5 8.5-6.1 13.6-7.5v-27.6c-14.8 2.2-27.8 9.8-37.1 20.6zm13.6 48.8c-0.8-2.9-1.2-6-1.2-9.1 0-3.3 0.4-6.5 1.3-9.5l-23.5-14.5c-3.1 7.4-4.8 15.5-4.8 24 0 8.4 1.7 16.4 4.7 23.6zm23.5 23.6c-5.2-1.5-9.9-4.2-13.8-7.7l-23.5 14.4c9.3 11 22.4 18.6 37.3 20.9zm9.3-17.3c8.5 0 15.3-6.9 15.3-15.4 0-8.5-6.8-15.4-15.3-15.4-8.5 0-15.4 6.9-15.4 15.4 0 8.5 6.9 15.4 15.4 15.4zm46.5 24l-23.5-14.4c-3.8 3.5-8.5 6.2-13.8 7.7v27.6c14.9-2.3 28-9.9 37.3-20.9zm9.7-15.8c3.1-7.2 4.8-15.2 4.8-23.6 0-8.5-1.8-16.6-4.9-24l-23.5 14.5c0.9 3 1.4 6.2 1.4 9.5 0 3.1-0.5 6.2-1.3 9.1z"/>
			</g>
			<g id="&lt;Group&gt;">
				<g id="&lt;Group&gt;">
					<path id="&lt;Path&gt;" class="s6" d="m1550.4 918.8h-956v-29.5c0-13.3 10.8-24 24.1-24h881.9c7.9 0 15.2 3.8 19.7 10.2z"/>
					<path id="&lt;Path&gt;" class="s7" d="m1538.2 901.3l12.2 17.5h-956v-17.5z"/>
					<path id="&lt;Path&gt;" class="s6" d="m2609.5 980.6v594.2c0 16.9-13.7 30.6-30.6 30.6h-122.3c0-66.3-53.7-120-120-120-66.3 0-120 53.7-120 120h-1120c0-66.3-53.7-120-120-120-66.3 0-120 53.7-120 120h-188.2l-169.4-31.4c-14.9-2.7-25.7-15.7-25.7-30.9v-562.5c0-34.2 27.7-61.8 61.8-61.8h2012.6c34.2 0 61.8 27.6 61.8 61.8z"/>
					<g id="&lt;Group&gt;">
						<path id="&lt;Path&gt;" class="s7" d="m2572.4 1537.7c20.5 0 37.1 16.6 37.1 37.1 0 16.9-13.7 30.6-30.6 30.6h-122.3c0-25.1-7.7-48.5-20.9-67.7z"/>
						<path id="&lt;Path&gt;" class="s7" d="m877.5 1537.7c-13.2 19.2-20.9 42.6-20.9 67.7h-188.2l-169.4-31.4c-14.9-2.7-25.7-15.7-25.7-30.9v-5.4z"/>
						<path id="&lt;Path&gt;" class="s7" d="m2237.5 1537.7c-13.2 19.2-20.9 42.6-20.9 67.7h-1120c0-25.1-7.7-48.5-20.9-67.7z"/>
					</g>
					<path id="&lt;Path&gt;" class="s8" d="m487.8 1517.3h-27.4v-144.7h27.4z"/>
					<path id="&lt;Path&gt;" class="s9" d="m487.8 1360.7h-27.4v-27.3h27.4z"/>
					<path id="&lt;Path&gt;" class="s8" d="m2609.5 1496.1h-14.1v-130.8h14.1z"/>
					<path id="&lt;Path&gt;" class="s10" d="m1187.6 1283.3v-262c0-11.1 8.9-20 20-20h579.3c11.1 0 20 8.9 20 20v262c0 11.1-8.9 20-20 20h-579.3c-11.1 0-20-8.9-20-20z"/>
					<path id="&lt;Path&gt;" class="s10" d="m2151.1 1283.3v-262c0-11.1 9-20 20-20h213.2c11.1 0 20 8.9 20 20v262c0 11.1-8.9 20-20 20h-213.2c-11 0-20-8.9-20-20z"/>
					<path id="&lt;Path&gt;" class="s10" d="m2424.3 1169.9v-148.6c0-11.1 8.9-20 20-20h145.2c11.1 0 20 8.9 20 20v282h-51.9c-73.6 0-133.3-59.7-133.3-133.4z"/>
					<path id="&lt;Path&gt;" class="s5" d="m1187.6 1283.3v-262c0-11.1 8.9-20 20-20h579.3c11.1 0 20 8.9 20 20v262c0 11.1-8.9 20-20 20h-579.3c-11.1 0-20-8.9-20-20z"/>
					<path id="&lt;Path&gt;" class="s5" d="m2151.1 1283.3v-262c0-11.1 9-20 20-20h213.2c11.1 0 20 8.9 20 20v262c0 11.1-8.9 20-20 20h-213.2c-11 0-20-8.9-20-20z"/>
					<path id="&lt;Path&gt;" class="s5" d="m2424.3 1169.9v-148.6c0-11.1 8.9-20 20-20h145.2c11.1 0 20 8.9 20 20v282h-51.9c-73.6 0-133.3-59.7-133.3-133.4z"/>
					<path id="&lt;Path&gt;" class="s10" d="m526 1283.3v-262c0-11.1 8.9-20 20-20h579.3c11.1 0 20 8.9 20 20v262c0 11.1-8.9 20-20 20h-579.3c-11.1 0-20-8.9-20-20z"/>
					<path id="&lt;Path&gt;" class="s5" d="m526 1283.3v-262c0-11.1 8.9-20 20-20h579.3c11.1 0 20 8.9 20 20v262c0 11.1-8.9 20-20 20h-579.3c-11.1 0-20-8.9-20-20z"/>
					<path id="&lt;Path&gt;" class="s5" d="m2134.4 1021.3v584.1h-169.6-17.7-120.7v-584.1c0-11.1 9-20 20-20h100.7 17.7 149.6c11.1 0 20 8.9 20 20z"/>
					<g id="&lt;Clip Group&gt;" clip-path="url(#cp1)">
						<path id="&lt;Path&gt;" class="s1" d="m1200.9 1468.8h-85.5l376.5-663.4h85.5z"/>
						<path id="&lt;Path&gt;" class="s1" d="m1340.4 1484h-85.5l376.5-663.4h85.5z"/>
						<path id="&lt;Path&gt;" class="s1" d="m1591.9 1497.5h-85.5l376.5-663.4h85.5z"/>
						<path id="&lt;Path&gt;" class="s1" d="m1393.4 1496.1h-22.5l376.5-663.4h22.5z"/>
					</g>
					<g id="&lt;Clip Group&gt;" clip-path="url(#cp2)">
						<path id="&lt;Path&gt;" class="s1" d="m2180 1434.6h-85.5l376.5-663.3h85.5z"/>
						<path id="&lt;Path&gt;" class="s1" d="m2233 1446.7h-22.5l376.5-663.3h22.5z"/>
					</g>
					<g id="&lt;Clip Group&gt;" clip-path="url(#cp3)">
						<path id="&lt;Path&gt;" class="s1" d="m2384.5 1422.5h-42.8l376.5-663.3h42.7z"/>
						<path id="&lt;Path&gt;" class="s1" d="m2437.5 1434.6h-22.5l376.4-663.3h22.6z"/>
					</g>
					<g id="&lt;Clip Group&gt;" clip-path="url(#cp4)">
						<path id="&lt;Path&gt;" class="s1" d="m529.9 1461.8h-85.5l376.5-663.4h85.5z"/>
						<path id="&lt;Path&gt;" class="s1" d="m824.9 1461.8h-85.5l376.5-663.4h85.5z"/>
						<path id="&lt;Path&gt;" class="s1" d="m578.9 1461.8h-22.5l376.5-663.4h22.5z"/>
					</g>
					<g id="&lt;Clip Group&gt;" clip-path="url(#cp5)">
						<path id="&lt;Path&gt;" class="s1" d="m1717.1 1624h-85.5l376.4-663.3h85.5z"/>
						<path id="&lt;Path&gt;" class="s1" d="m1770.1 1636.1h-22.5l376.4-663.3h22.6z"/>
						<path id="&lt;Path&gt;" class="s1" d="m1921.5 1611.9h-42.7l376.5-663.3h42.7z"/>
					</g>
					<path id="&lt;Path&gt;" class="s10" d="m1988.4 1605.4h-16.5v-604.1h16.5z"/>
					<path id="&lt;Compound Path&gt;" fill-rule="evenodd" class="s10" d="m1125.3 1308.3h-579.3c-13.8 0-25-11.2-25-25v-262c0-13.8 11.2-25 25-25h579.3c13.8 0 25 11.2 25 25v262c0 13.8-11.2 25-25 25zm-579.3-302c-8.3 0-15 6.7-15 15v262c0 8.3 6.7 15 15 15h579.3c8.3 0 15-6.7 15-15v-262c0-8.3-6.7-15-15-15z"/>
					<path id="&lt;Compound Path&gt;" fill-rule="evenodd" class="s10" d="m1786.9 1308.3h-579.3c-13.8 0-25-11.2-25-25v-262c0-13.8 11.2-25 25-25h579.3c13.8 0 25 11.2 25 25v262c0 13.8-11.2 25-25 25zm-579.3-302c-8.3 0-15 6.7-15 15v262c0 8.3 6.7 15 15 15h579.3c8.3 0 15-6.7 15-15v-262c0-8.3-6.7-15-15-15z"/>
					<path id="&lt;Compound Path&gt;" fill-rule="evenodd" class="s10" d="m2139.4 1610.4h-318v-589.1c0-13.8 11.2-25 25-25h268c13.8 0 25 11.2 25 25zm-308-10h298v-579.2c0-8.2-6.7-15-15-15h-268c-8.2 0-15 6.8-15 15z"/>
					<path id="&lt;Compound Path&gt;" fill-rule="evenodd" class="s10" d="m2384.3 1308.3h-213.2c-13.7 0-25-11.2-25-25v-262c0-13.8 11.3-25 25-25h213.2c13.8 0 25 11.2 25 25v262c0 13.8-11.2 25-25 25zm-213.2-302c-8.2 0-15 6.7-15 15v262c0 8.3 6.8 15 15 15h213.2c8.3 0 15-6.7 15-15v-262c0-8.3-6.7-15-15-15z"/>
					<path id="&lt;Compound Path&gt;" fill-rule="evenodd" class="s10" d="m2603.8 1308.3h-46.2c-76.3 0-138.3-62.1-138.3-138.4v-148.6c0-13.8 11.2-25 25-25h145.2c13.8 0 25 11.2 25 25v276.3c0 5.9-4.8 10.7-10.7 10.7zm-159.5-302c-8.3 0-15 6.7-15 15v148.6c0 70.8 57.6 128.4 128.3 128.4h46.2c0.4 0 0.7-0.3 0.7-0.7v-276.3c0-8.3-6.7-15-15-15z"/>
					<path id="&lt;Path&gt;" class="s6" d="m2168.9 1623.3h-377.5v-17.9h377.5z"/>
					<path id="&lt;Path&gt;" class="s7" d="m2185.4 1641.1h-410.5v-17.8h410.5z"/>
					<path id="&lt;Path&gt;" class="s6" d="m2657.1 1189.9c-11.8 0-21.3-9.5-21.3-21.3v-174.7c0-11.7 9.5-21.3 21.3-21.3 11.8 0 21.3 9.6 21.3 21.3v174.7c0 11.8-9.5 21.3-21.3 21.3z"/>
					<path id="&lt;Path&gt;" class="s7" d="m2648 986.5h-200.7c-7.6 0-13.9-6.2-13.9-13.9 0-7.7 6.3-13.9 13.9-13.9h200.7c7.7 0 13.9 6.2 13.9 13.9 0 7.7-6.2 13.9-13.9 13.9z"/>
				</g>
				<g id="&lt;Group&gt;">
					<path id="&lt;Path&gt;" class="s11" d="m1728.6 1285.9c1-3.2 1.8-5.5 2.2-6.6q0.2-0.8 0.2-0.9c0 0 0.4 0.3 0.9 1 3.2 4 14.2 21.3 5.9 61.4-1.2 5.9-2.8 12.3-5 19.2 0 0 30.6-5.3 39.2-11.1 0.4-0.9 4.9-14.2 8.3-16 3.4-1.8 9.7-3.8 11.1-3 1.5 0.7 4.2 10.7 0 15.9-4.1 5.3-14.7 10.3-14.7 10.3 0 0-34.1 27.3-57.9 26.6-19.8-0.6 2-73 9.8-96.8z"/>
					<path id="&lt;Path&gt;" class="s12" d="m1582.3 1463c1.2-3.3 1.7-8.1 1.7-8.1 17.3 7.6 36.1 4.3 36.1 4.3 1.6 6.7 0.2 15.9 0.2 15.9-19.4 5.2-40.9-6.2-40.9-6.2 0 0 2-3.5 2.9-5.9z"/>
					<path id="&lt;Path&gt;" class="s13" d="m1613.9 1297.1c2.8-19.4 6.1-30.2 38.1-34.5 32-4.3 40.2 8.7 40.2 8.7 0 0-0.7 8.3-2.2 20.9q0 0.9-0.1 1.7c-4.5 39-14.9 115.1-29.3 120.4-12.9 4.8-30.3 4.7-41.4 2.3q-0.7-0.2-1.3-0.4c-4.9-1.2-8.3-2.9-9.1-4.7-2.5-6.2 2.2-95 5.1-114.4z"/>
					<path id="&lt;Path&gt;" class="s14" d="m1636.3 1280.9c7.8-12.1 48-7.2 48-7.2 0 0 2.5 7.2 5.7 18.5q0 0.9-0.1 1.7c-4.5 39-14.9 115.1-29.3 120.4-12.9 4.8-30.3 4.7-41.4 2.3 2-25.1 10.3-125.1 17.1-135.7z"/>
					<path id="&lt;Path&gt;" class="s11" d="m1601 1454.2c2.3-1.5 4.6-6.1 5.5-7.9 7.3-18.1 15.7-53.4 18.5-59.9 1-2.4 2.9-13.5 5.5-27.9 4.5-25.7 11-61.9 17.6-76.2 0.7-1.7 3-3.1 5.9-4.4 7.8-3.2 20.4-4.8 23.4-5.2 3.1-2.5 7.5-13.3 7.4-29.8l1.4 0.3 23.7 4.7c0 0-0.5 7.4-0.5 14.5-0.1 5.8 0.3 11.4 1.6 12.1 1.7 0.1 2.7 0.2 2.7 0.2 0 0 19.8 27.5 21.5 53 1.6 25.5-15.9 36.6 0.1 87.6 16.3 52.1-94.4 19.2-88.3 5.6 11-24.7 16.2-31.6 16.4-39.4 0.1-5.5-2.2-11.3-6.9-23.9q-0.6 2.2-1.2 4.5c-2.7 9.8-4.9 18.5-5.8 22.9-2.9 13.4-33.9 64.9-33.9 64.9 0 0-1 0.7-2.1 3.8-1.1 3.2-9.9 19.8-13.6 19.8-3.8 0-4.6-5.7-5.4-9.3-0.8-3.6 3.5-8.1 6.5-10z"/>
					<path id="&lt;Path&gt;" class="s15" d="m1654 1176.9c5.3-3.3 13.7 0.6 13.7 0.6-2.9-4.1-13.5-2.8-13.5-2.8 21.1-4.5 25.5 9.1 25.8 10.3 15.3-13.8 39.9 15.6 39.9 15.6l-35.2 46.6c0 0-3.2-7.4-7.5-5.1-6.6 3.7-19.3-10.9-15.3-30.2q0.7-3.1 1.6-5.7c-1.4 0.6-2.9 1.1-4.4 1.1-3.8 0-9.6-9.8-10.4-13.1-0.8-3.3 0.1-14.1 5.3-17.3z"/>
					<path id="&lt;Path&gt;" class="s16" d="m1709.9 1247.9c0 0-0.5 7.4-0.5 14.5-13.3-0.4-20.3-12.5-23.2-19.2z"/>
					<path id="&lt;Path&gt;" class="s15" d="m1683.8 1240.6c0 0-7-11-8.7-20.4-1.1-6.7 2.3-31.5 27.2-27.9 0 0 7.3 0.7 14.1 5.3 5.4 3.6 13.3 11.5 4.5 33.2l-2.3 7.3z"/>
					<path id="&lt;Path&gt;" class="s11" d="m1714.3 1254.5c0 0-31.3 0.5-31.4-19 0-19.5-4-32.6 16-33.8 20-1.2 23.9 6.3 25.5 12.8 1.6 6.5-1.9 39.4-10.1 40z"/>
					<path id="&lt;Path&gt;" class="s17" d="m1674.6 1570.7c0 0 0.5-19.2 1-44.7 0.6-28.4 1.3-64.7 1.5-91.4l2.8-0.3 58.2-6.9c0 0 5 64.4-26 152.8-9 25.8-11.8 52.7-12 75.5-0.3 32.6 4.8 56.8 4.8 56.8l-10.4 0.7c0 0-11.9-24.1-19.8-55.5-7.2-28.9-11.3-62.9-0.1-87z"/>
					<path id="&lt;Path&gt;" class="s16" d="m1651.7 1340.7l64.3 7.4c0 0-33.8 4.4-52.6 33.4 0.2-6.1-2.9-12.8-8.8-29-1.3-3.8-2.3-7.8-2.9-11.8z"/>
					<path id="&lt;Path&gt;" class="s8" d="m1652.6 1579.2c0.3-0.6 0.5-1.3 0.4-1.9q0-0.1 0-0.1c-1.7-8.8-12.7-70.1-11.2-117 0.6-18.7 3.2-35 9.2-45l59 2.9c0 0-5.9 137.7-25.3 174.1-4.9 9.2-9.2 39.3-12.3 67.8-3.4 29.9-8 55.1-8 55.1l-5-3.6c0 0-14.7-23.1-18.1-58.8-2.2-23.6-0.5-50.2 11.3-73.5z"/>
					<path id="&lt;Path&gt;" class="s15" d="m1691.4 1227.5c-13.2 3.4-18.9-0.1-18.9-0.1 0 0 1-13.4 12.2-22.1 16.3-12.5 27.5-5.5 28.2-4.5 2.1-1.7 5.7-3 10.6 2.8 7.3 8.9 0.8 24.5 0.8 24.5-3 0.3-3.7-9.9-5.3-14.9-1.1-3.7-4.9-7.4-6.8-9.1-0.6 2.2-6.9 24.2-22.7 31.5 0 0 7.2-6.5 12.6-15.4-3.1 3.4-6.7 6.3-10.7 7.3z"/>
					<path id="&lt;Path&gt;" class="s9" d="m1655.2 1363.1c-3.5 1-14.8 3.1-27.7-4 5.3-26 12.9-62.3 20.5-76.7q0.5-1.1 1.8-2 0-0.1 0-0.1c7.1-5.2 21.6-6.7 21.6-6.7 0 0 4.4 19.8 7.3 22.4 2.8 2.6 43.7 6.8 44.7 2.1 0.9-4.5-10.7-22-11.5-23.5-0.1-0.1 1.8 0.1 1.8 0.1 4.7 0.6 8 1.1 10.4 1.5 4.6 0.8 5.8 1.4 6.9 2.2 4.1 4.1 9.5 14.3 9.9 32.4 0.2 6.8-0.4 14.6-1.9 23.6 0.6 25.5 11.6 72.7 8 99.4-3.4 24.2-54.4 18-64.5 15.8-6.9-1.6-12.3-8.9-16.1-21.9-1.3 9.1-4.1 19.8-10.5 20.4-10.4 1.1-14.7-0.7-16-4.7-0.3-1.1-0.4-2.7-0.3-4.7 0.6-13.6 11-45.7 15.6-75.6z"/>
					<path id="&lt;Path&gt;" class="s13" d="m1724.1 1276.2c7.2 7.1 14 26.1 16.8 34.6 0.2 6.8-0.4 14.6-1.9 23.6-2-22.6-23.8-57.4-25.2-59.6q-0.1-0.1-0.1-0.1c0 0 9.5 0.6 10.4 1.5z"/>
					<g id="&lt;Group&gt;">
						<path id="&lt;Path&gt;" class="s9" d="m1765.5 1351l9.1-27.5c0.2-0.4 0.7-0.7 1.2-0.5l14.4 4.7c0.5 0.2 0.7 0.7 0.6 1.2l-9.2 27.4c-0.1 0.5-0.7 0.8-1.1 0.6l-14.4-4.8c-0.5-0.1-0.8-0.7-0.6-1.1z"/>
						<path id="&lt;Path&gt;" class="s18" d="m1768.8 1351.3l8.7-26.1c0.3-0.8 1.2-1.3 2-1l13.1 4.3c0.8 0.3 1.3 1.2 1 2.1l-8.7 26.1c-0.3 0.8-1.2 1.3-2 1l-13.1-4.3c-0.8-0.3-1.3-1.2-1-2.1z"/>
					</g>
					<path id="&lt;Path&gt;" class="s11" d="m1672.4 1660c-3.4 29.9-7.9 56.1-7.9 56.1l-5.1-4.6c0 0-14.7-23.1-18.1-58.8 12.2 8.1 27.6 7.6 31.1 7.3z"/>
					<path id="&lt;Path&gt;" class="s11" d="m1700.1 1655.7c-0.3 32.6 4.8 56.8 4.8 56.8l-10.4 0.7c0 0-11.9-24.1-19.8-55.5 14.6 1.6 21.9-0.2 25.4-2z"/>
					<g id="&lt;Group&gt;">
						<path id="&lt;Path&gt;" class="s15" d="m1683.2 1719.6c0 0 0.5-1.4 1.2-3.3 1.1-3.2 2.4-7.9 2-10.4-0.3-1.8 0.1-3.3 0.6-4.3 0.7-1.4 1.5-2.1 1.5-2.1 0 0 4.7 5.5 7.4 3.2 5.3-4.4 6.5-4.8 6.7-4.8h0.1c0 0 11.6 7.3 14.6 10.1 5.3 4.8 11.2 5.6 14.2 6.5 1.2 0.3 2.2 1.2 2.6 2.4 0.7 1.7 1.4 4 0.7 5h-28.1q0 0-0.1 0c-0.3-0.4-1.9-1.8-5.3-1.3-2.3 0.3-3.9 0.9-6.1 1.3h-6.6c-5.7-0.7-5.4-2.3-5.4-2.3z"/>
						<path id="&lt;Path&gt;" class="s13" d="m1688.5 1699.5c0 0 4.7 5.5 7.4 3.2 5.3-4.4 6.5-4.8 6.7-4.8h0.1c0 0-5.6 7.6-8.6 7.2-2.2-0.2-5.5-2.4-7.1-3.5 0.7-1.4 1.5-2.1 1.5-2.1z"/>
						<path id="&lt;Path&gt;" class="s13" d="m1683.2 1719.6c0 0 0.5-1.4 1.2-3.3 1.7 0.7 8.7 3.6 13.4 2.5 5.4-1.3 9.3 0.4 10.6 1.3 1.3 0.9 23.7 1.3 24.2 0.7 0.4-0.6 0.7-4.7 1.5-3.9 0.7 1.7 1.4 4 0.7 5h-28.1q0 0-0.1 0c-0.3-0.4-1.9-1.8-5.3-1.3-2.3 0.3-3.9 0.9-6.1 1.3h-6.6c-5.7-0.7-5.4-2.3-5.4-2.3z"/>
					</g>
					<g id="&lt;Group&gt;">
						<path id="&lt;Path&gt;" class="s15" d="m1647.9 1719.6c0 0 0.6-1.4 1.2-3.3 1.1-3.2 2.5-7.9 2.1-10.4-0.3-1.8 0-3.3 0.6-4.3 0.6-1.4 1.5-2.1 1.5-2.1 0 0 4.6 5.5 7.3 3.2 5.3-4.4 6.5-4.8 6.8-4.8 0 0 11.6 7.3 14.6 10.1 5.4 4.8 11.3 5.6 14.2 6.5 1.2 0.3 2.2 1.2 2.7 2.4 0.6 1.7 1.3 4 0.6 5h-28.1q0 0 0 0c-0.3-0.4-1.9-1.8-5.4-1.3-2.2 0.3-3.9 0.9-6.1 1.3h-6.6c-5.7-0.7-5.4-2.3-5.4-2.3z"/>
						<path id="&lt;Path&gt;" class="s13" d="m1653.3 1699.5c0 0 4.6 5.5 7.3 3.2 5.3-4.4 6.5-4.8 6.8-4.8 0 0-5.5 7.6-8.5 7.2-2.2-0.2-5.6-2.4-7.1-3.5 0.6-1.4 1.5-2.1 1.5-2.1z"/>
						<path id="&lt;Path&gt;" class="s13" d="m1647.9 1719.6c0 0 0.6-1.4 1.2-3.3 1.8 0.7 8.7 3.6 13.4 2.5 5.4-1.3 9.3 0.4 10.6 1.3 1.3 0.9 23.7 1.3 24.2 0.7 0.5-0.6 0.7-4.7 1.6-3.9 0.6 1.7 1.3 4 0.6 5h-28.1q0 0 0 0c-0.3-0.4-1.9-1.8-5.4-1.3-2.2 0.3-3.9 0.9-6.1 1.3h-6.6c-5.7-0.7-5.4-2.3-5.4-2.3z"/>
					</g>
					<path id="&lt;Path&gt;" class="s19" d="m1655.2 1363.1c0 0 6.6-28.8 10.1-28 3.5 0.8 29.6 44.2 1 81.1-10.8 14-19.7 20.2-26.7 22.5 0.6-13.6 11-45.7 15.6-75.6z"/>
					<path id="&lt;Path&gt;" class="s13" d="m1655.6 1270.9c0 0 28.7 19.6 30.9 61.1 2.1 41.5-35.3 50-35.3 50l2.5-13.1c0 0 30.3-11 22.3-44.1-7.9-33.1-31.6-51-31.6-51z"/>
					<path id="&lt;Path&gt;" class="s11" d="m1788.4 1349.1c0 0-0.8-1.4-3.7-4.3-2.9-3-5-11.5-0.1-13.7 5-2.3 7.6 3.3 7.6 3.3z"/>
				</g>
				<g id="&lt;Group&gt;">
					<path id="&lt;Path&gt;" class="s20" d="m779.6 1392.2c0 0 4.7 5.4 1.9 8.8-2.7 3.4-7.7 6.3-12.4 3.1-4.6-3.3-5.9-15.3-3.2-15.3 2.7 0 13.7 3.4 13.7 3.4z"/>
					<path id="&lt;Path&gt;" class="s17" d="m770.4 1341c0 0 13.7 44.6 10.8 51-2.9 6.5-12.2 5.3-17.4-2.4-5.3-7.6 6.6-48.6 6.6-48.6z"/>
					<path id="&lt;Path&gt;" class="s8" d="m734.7 1241.5c0 0 21.1 3.8 28.9 11.6 7.8 7.8 26.3 30.9 14.7 107.7 0 0-1 23.2-27 25.4-26 2.2-16.6-144.7-16.6-144.7z"/>
					<path id="&lt;Path&gt;" class="s11" d="m748.1 1248h-30.7c0.5-1.8 1.1-4.9 1.7-10.1 0.5-4.5 1-10.6 1.3-18.8l0.7 0.1 25.3 7.8 0.3 0.1c0 0-0.2 0.9-0.3 2.6-0.2 2.3-0.4 5.8 0 9.8 0.3 2.7 0.8 5.7 1.7 8.5z"/>
					<path id="&lt;Path&gt;" class="s14" d="m718.5 1215.5c-29.6-14-31.2-50.9-19-54.4 53.8-15.7 56.8 25.7 56.8 25.7z"/>
					<path id="&lt;Path&gt;" class="s11" d="m767.7 1385c0 0-14.7 142.6-16 164-0.1 2.4-0.5 5.8-1 10.2-3.8 34.6-16.9 124.5-7.6 145.4 2.6 5.7 7.8 10.2 11.3 12.3 10 5.8-23.1 7.6-26-2.1-2.6-8.8-0.9-18.4-4.2-34.9-1.4-7.3-4.1-18.9-6.2-29-0.9-4.7-1.7-11.1-2.4-18.5-2.3-27.4-2.6-68.6-2-86.5 0.7-22.6-23.6-88.1-27.3-113.4-3.5-25.2 45.8-67.3 81.4-47.5z"/>
					<path id="&lt;Path&gt;" class="s20" d="m768.1 1385c0 0-15.1 142.6-16.4 164-0.1 2.4-0.5 5.8-1 10.2l-35.1 73.2c-2.3-27.4-2.6-68.6-2-86.5 0.7-22.6-23.6-88.1-27.3-113.4-3.5-25.2 46.1-67.4 81.8-47.5z"/>
					<path id="&lt;Path&gt;" class="s11" d="m763.8 1389.6c0 0-30.7 140.9-34.2 162.1-3.4 21.2-31.4 120.8-25.3 145.7 3.6 14.7 9.9 19.1 9.9 19.1 1.4 2.7-22.8 8.1-24.8-2.3-2.4-13.1-3-31.5-6.6-62.7-6.3-53.8 6.2-84.3 9.2-106.8 3-22.5-10.1-93.9-2.9-118.3 12.8-42.7 41.2-60.2 74.7-36.8z"/>
					<path id="&lt;Path&gt;" class="s8" d="m710.1 1379.7c31.7 12.2 58 5.3 58 5.3l3.9 129c-18.1 7.5-42.8 8.4-61.7 7.7l-2.2-26.1-6.4 25.6c-11.7-0.8-19.7-2.1-19.7-2.1-13-107.2 28.1-139.4 28.1-139.4z"/>
					<path id="&lt;Path&gt;" class="s17" d="m675.4 1688c1-2.6 10.1-8.1 10.1-8.1 0 0 6.5 34.1 10.3 35.1 9.1 2.3 18.3 0.9 18.3 0.9 0 0 3.3 1.6 4.6 3.6 0.5 0.8 0.7 1.6 0.4 2.4h-28.7c-2.3-3.8-5.3-16.4-7.7-19q-0.2-0.2-0.5-0.6l-0.2 19.6h-2.6c-0.1-3.7-0.4-18.6-1.8-26.9-1.6-3-2.7-5.8-2.2-7z"/>
					<path id="&lt;Path&gt;" class="s17" d="m714.2 1688c1-2.6 10-8.1 10-8.1 0 0 6.5 34.1 10.4 35.1 9.1 2.3 18.3 0.9 18.3 0.9 0 0 6.1 2.9 5 6h-28.8c-2.2-3.7-5.2-16.1-7.5-18.9l-0.2 18.9h-2.6q0-0.8-0.1-2.4c-0.1-5.3-0.4-15.8-1.5-22.9-2-3.5-3.6-7.2-3-8.6z"/>
					<path id="&lt;Path&gt;" class="s21" d="m705.5 1252.2c1.9-4.3 12.9-8.9 12.9-8.9 23.8 5.8 27 3 28.8 1.4 11.7 8.5 27.3 30.2 29.9 57.8 4 41.1-8.5 83.8-8.5 83.8-36.5 12.2-60.7-4.5-60.7-4.5 7.4-17.9-6.6-120.6-2.4-129.6z"/>
					<path id="&lt;Path&gt;" class="s8" d="m703.9 1281.7c4.8-18.4 6.4-32.3 14.5-38.4 0 0 35 40.3 37 59.9 2 19.7-3.6 71.6-15 78.6-2.8 1.7-6.5 3.2-10.8 4.4-12.7 3.7-21 11.3-31.8 9.1 0 0-5.6-69.5 6.1-113.6z"/>
					<path id="&lt;Path&gt;" class="s17" d="m703.9 1281.7c19.1 20.1 41.9 51.2 36.1 79.8-2 9.9-5.7 18.1-10.4 24.7-9.2 7.3-21 11.3-31.8 9.1 0 0-5.6-69.5 6.1-113.6z"/>
					<path id="&lt;Path&gt;" class="s16" d="m746.4 1227l0.3 0.1c0 0-0.2 0.9-0.3 2.6-0.2 2.3-0.4 5.8 0 9.8-13.3-2.1-22.4-15.4-25.3-20.3z"/>
					<path id="&lt;Path&gt;" class="s11" d="m753.5 1228.8c0 0-31.4 6.3-35-13.3-3.6-19.6-10.1-32 9.8-36.8 19.9-4.9 25.2 1.9 28 8.1 2.8 6.3 5.3 39.9-2.8 42z"/>
					<path id="&lt;Path&gt;" class="s14" d="m707.6 1181.6c10.5-13.2 23.7-11.4 30.6-9.2 1.3-0.3 3.3-0.4 5.9-0.5 20.5-0.5 14.9 23.2 14.9 23.2-0.8-14.9-13.7-16.5-13.7-16.5q0 0-0.5-0.1c1.2 4.1 0.8 10.8-9.3 17.1-16.2 10.2-14.9 30.5-10.6 36.2 0 0-32.2-31.4-17.3-50.2z"/>
					<path id="&lt;Path&gt;" class="s15" d="m767.1 1418.6c2.5-10.8 5.4-16.4 8.8-17.2 1-0.2 2 0 2.8 0.6 2.7 1.9 4.9 7.7 6.8 17.6 1.4 7.2 2.1 14 2.2 14l-2.2 0.2c0 0-0.7-6.7-2.1-13.7-2.4-12.2-4.7-15.5-5.9-16.3-0.5-0.4-0.9-0.3-1.1-0.3-4.6 1.1-8.5 19.4-10 30.7l-2.1-0.2c0-0.1 1-7.7 2.8-15.4z"/>
					<g id="&lt;Group&gt;">
						<path id="&lt;Path&gt;" class="s15" d="m742 1473.1l4.6-31.1c1-6.6 6.7-11.5 13.4-11.5h33.3c3 0 5.4 2.4 5.4 5.4v38c0 3-2.4 5.5-5.4 5.5h-46c-3.3 0-5.8-3-5.3-6.3z"/>
						<path id="&lt;Path&gt;" class="s14" d="m764.6 1430.5h29.3c2.8 0 5.2 2 5.7 4.7l7.3 37.2c0.7 3.6-2.1 7-5.8 7h-31.3c-2.9 0-5.4-2.2-5.8-5l-5.2-37.3c-0.5-3.5 2.3-6.6 5.8-6.6z"/>
					</g>
					<path id="&lt;Path&gt;" class="s22" d="m764.4 1398c0 0 13.6 3.6 14.4 6.4 0.8 2.8-3.9 10.8-11.6 8.9-7.6-1.8-13.8-11-13.8-11z"/>
					<path id="&lt;Path&gt;" class="s8" d="m724.1 1271.7c0.4 8.5-3.7 73.1-0.8 79 3 5.9 44.6 47.1 44.6 47.1 0.4 6.2-10.4 10-10.4 10-25.4-3.3-55.3-41.5-57.9-46.3-2.6-4.8-20.4-75.8-10.8-95.7 9.5-19.9 29.6-22.5 29.6-22.5 0 0 5.3 19.9 5.7 28.4z"/>
				</g>
				<g id="&lt;Group&gt;">
					<path id="&lt;Path&gt;" class="s11" d="m1166.5 1432.4c0.4-10.4 14.4-15.5 14.4-15.5 6.8-4.2 6.4-52.6 8.9-81.1 0.6-7 1.3-12.7 2.1-16.2 4-18 5.2-81.8 17.3-91.8 12-10 39.9-14.2 39.9-14.2 0 0-9 48.1-18.8 98.3-10.7 54.6-36.6 106.8-38.8 108.9q-0.1 0-0.1 0c-2.3 4.9-8.4 11.8-11.7 14-4.1 2.7-1.9 8.1-6.8 8.6-6.4 0.7-6.7-5.6-6.4-11z"/>
					<path id="&lt;Path&gt;" class="s11" d="m1248.6 1186.4l8.6-1.4 29.5 0.6c-0.4 2.7-0.6 5.1-0.6 7.4 0.1 6.1 1.6 11.1 3 18.5 0.4 9.5-11.1 16.1-26.3 14.3-15.2-1.8-14.1-14.1-14.1-14.1v-4z"/>
					<path id="&lt;Path&gt;" class="s16" d="m1257.2 1185l29.5 0.6c-0.5 2.7-0.6 5.1-0.6 7.4-4.5 7.2-13.3 17.1-26.8 17.1-4 0-7.5-0.9-10.6-2.4l-0.1-21.3z"/>
					<path id="&lt;Path&gt;" class="s11" d="m1243.6 1146.3c3.4-7.5 9.8-15.6 33.6-9.8 23.9 5.9 16.1 20.8 11.7 44.3-4.4 23.6-42.1 16-42.1 16-9.7-2.6-6.6-43-3.2-50.5z"/>
					<path id="&lt;Path&gt;" class="s23" d="m1249.1 1213.6c0 0-5.2 27.7-12 63-2.1 11.2-4.5 23.2-6.8 35.3-9.6 18.8-17.9 31.6-20.4 29.2-5.2-4.9-14.3-5.5-20.1-5.3 0.6-7 1.3-12.7 2.1-16.2q0.5-2.2 0.9-5.1c3.4-22.7 5.3-77.5 16.4-86.7 12-10 39.9-14.2 39.9-14.2z"/>
					<path id="&lt;Path&gt;" class="s24" d="m1209.9 1341.1c-5.2-4.9-14.3-5.5-20.1-5.3 0.6-7 1.3-12.7 2.1-16.2q0.5-2.2 0.9-5.1l28.8-69.5c0 0-9.2 98.5-11.7 96.1z"/>
					<path id="&lt;Path&gt;" class="s15" d="m1274.5 1721.9c0 0 1.5-11.2 4.8-17.8 3.3-6.5 24-2.3 24-2.3 0 0 4.2 3.5 5.1 20.1z"/>
					<path id="&lt;Path&gt;" class="s15" d="m1139.6 1721.9c0.7-2.3 1.2-5.8 8.4-6.9 10.5-1.7 29-8 32.1-21.9 3.2-14 25.9 4.2 25.9 4.2 0 0 2.8 21.7-2.1 24.6z"/>
					<path id="&lt;Path&gt;" class="s14" d="m1251 1560.9c-0.9 5.1-1.5 9.3-1.7 12.3-2.1 41.2-34.7 135.5-40.5 137.7-9 3.4-23.2-3.8-30.7-6.2-3-1-5.1-4.1-4.4-7.2 16.1-74.2 22-181.1 24.2-244.3 1.1-31.9 6.5-53.9 6.5-53.9 0 0 79.5-21.2 80 5.6 0.4 23.8-26.3 116.9-33.4 156z"/>
					<path id="&lt;Path&gt;" class="s15" d="m1251 1560.9l-53.1-107.7c1.1-31.9 6.5-53.9 6.5-53.9 0 0 79.5-21.2 80 5.6 0.4 23.8-26.3 116.9-33.4 156z"/>
					<path id="&lt;Path&gt;" class="s14" d="m1317.2 1397.3c11 7.3 1.2 72.9 2.2 112 1 39.2-11.3 201.2-11.3 201.2-14.3 3.5-32.8-0.9-32.8-0.9l-42-304.6c0 0 72.8-14.9 83.9-7.7z"/>
					<path id="&lt;Path&gt;" class="s25" d="m1323.2 1397.3c0.1 3.5-2.7 6.5-6.2 6.5l-66.2 1-48.6 0.8c-2.3 0 4.9-18.2 5-137 0.1-26.5 41.1-55 41.9-55 0 3.8 6 10.8 15.3 11.4 11 0.8 24.5-4.7 24.5-11 0-0.1 1.2 1.3 3.3 4.3 5.5 8 16.5 27.5 23.6 61.4 5.6 26.8 3.4 62.7 7.4 109 0.3 3.3-0.1 6.3 0 8.6z"/>
					<path id="&lt;Path&gt;" class="s23" d="m1320.7 1404.2c0 0-8.8 4-25.2 7.4-12.3 2.5-28.7 4.8-49 4.9-32.2 0.2-44.3-10.9-44.3-10.9-2.3 0 4.9-18.2 5-137 0.1-26.5 41.1-55 41.9-55 0 0-1.1 35.3 9.6 45.7 0 0 15-11.6 34.4-44.5 5.5 8 15.6 31 22.7 64.9 1.4 6.9 2.4 14.4 3 22.6 1.9 23.4 1.5 52 4.4 86.4 0.3 3.3-0.1 6.3 0 8.6 0.1 3.5 1.1 6.9-2.5 6.9z"/>
					<path id="&lt;Path&gt;" class="s24" d="m1320.7 1404.2c0 0-8.8 4-25.2 7.4-5.2-7.9-11.7-22.2-12.6-44.7-1.6-38 34.5-86.9 34.5-86.9l1.4 22.3c1.9 23.4 1.5 52 4.4 86.4 0.3 3.3-0.1 6.3 0 8.6 0.1 3.5 1.1 6.9-2.5 6.9z"/>
					<path id="&lt;Path&gt;" class="s8" d="m1225.1 1290l47.4-27.3c3.9-2.3 8.8-1 11.1 2.9l40.6 70.3c2.2 3.9 0.9 8.9-3 11.1l-47.4 27.4c-3.9 2.3-8.9 0.9-11.2-3l-40.5-70.2c-2.3-3.9-0.9-8.9 3-11.2z"/>
					<path id="&lt;Path&gt;" class="s11" d="m1233.1 1327.8c1.1-3 11.7-6.8 15.3-6.8 3.7 0 13 8.6 13.2 8.9 2.7-0.2 28.9-1.4 48.4-4.3 5.1-0.7 9.7-1.6 13.4-2.6 4.4-1.2-17.7-57.4-28.9-90.4-2.7-7.9-4.7-14.5-5.6-18.6 0 0 1.9 0.3 5 0.9 8.7 1.7 26.4 5.7 33.9 11.4 10.2 7.7 35.6 94.6 20 128.2 0 0-12.6 1.2-34.1-1-15.4-1.6-35.5-4.9-58.7-11.8q-0.9 0.1-1.6 0c-3.2-0.3-15.8-3.2-18.8-4.4-3-1.2-2.6-6.5-1.5-9.5z"/>
					<path id="&lt;Path&gt;" class="s23" d="m1347.8 1354.5c0 0-12.6 1.2-34.1-1 1.2-5.9 2.3-17.3-3.7-27.9 5.1-0.7 9.7-1.6 13.4-2.6 4.4-1.2-17.7-57.4-28.9-90.4-0.9-10.7-1.4-17.8-1.4-17.8l0.8 0.1c8.7 1.7 26.4 5.7 33.9 11.4 10.2 7.7 35.6 94.6 20 128.2z"/>
					<path id="&lt;Path&gt;" class="s24" d="m1280.1 1230.9c2.4-4.8 8.9-20.9 8.9-20.9 7.4 0.6 13 6.5 13 6.5 0 0-0.3 14.9-1.2 16.7-0.9 1.7-15.3 0.4-15.3 0.4 2.1 2.4 4 10.4 3.6 11.4-0.4 1.1-30.4 14.3-30.4 14.3 0 0 15-15.6 21.4-28.4z"/>
					<path id="&lt;Path&gt;" class="s24" d="m1251.6 1233.2c0 0 1.9 15.4 7.1 26.1 0 0-15.7-10.9-17-14.5-1.3-3.6 3.8-10.5 3.8-10.5 0 0-9.4-0.2-9.6-3.3-0.2-3.1 2.9-15.4 2.9-15.4 0 0 7.7-5.7 9.9-5.5z"/>
					<path id="&lt;Path&gt;" class="s15" d="m1236.3 1128.8c0 0 10.5-0.8 22.9-6.2 10.1-4.4 22.8 0.4 26.9 2.6-0.1-0.7-0.4-1.6-1-2.5 0 0 1.8 1.3 2.1 3.2q0.3 0.2 0.2 0.2c0 0 2.1-0.3 3.5 0.3 0 0-1-0.2-1.3 0.4q-0.1 0.1-0.2 0.2c15.7 7.6 17.2 32.4 12.1 38.2-6 6.9-13.3 22.4-13.3 22.4 0 0-2.7-3.7-1.6-9.7 1.1-6.1-4.1-6.1-10.8-8.9-6.6-2.7-1.1-10.5-6.9-15.2-5.8-4.7-27-1.9-26.8-5.5-7.9-2.9-5.8-18.7-5.8-19.5z"/>
					<path id="&lt;Path&gt;" class="s26" d="m1273.2 1313.3c2.2 0 4 1.8 4 4 0 2.1-1.8 3.9-4 3.9-2.2 0-3.9-1.8-3.9-3.9 0-2.2 1.7-4 3.9-4z"/>
					<g id="&lt;Group&gt;">
						<g id="&lt;Group&gt;">
							<path id="&lt;Path&gt;" class="s18" d="m1110.2 1707.5c2.2 5.3-0.2 11.4-5.5 13.6-5.2 2.2-11.3-0.2-13.5-5.4-2.3-5.3 0.2-11.3 5.4-13.6 5.2-2.2 11.3 0.2 13.6 5.4z"/>
							<path id="&lt;Path&gt;" class="s9" d="m1111.1 1707.5c2.2 5.3-0.2 11.4-5.4 13.6-5.3 2.2-11.3-0.2-13.6-5.4-2.2-5.3 0.2-11.3 5.4-13.6 5.3-2.2 11.4 0.2 13.6 5.4z"/>
						</g>
						<g id="&lt;Group&gt;">
							<path id="&lt;Path&gt;" class="s18" d="m1193 1707.5c2.3 5.3-0.2 11.4-5.4 13.6-5.3 2.2-11.3-0.2-13.6-5.4-2.2-5.3 0.2-11.3 5.5-13.6 5.2-2.2 11.3 0.2 13.5 5.4z"/>
							<path id="&lt;Path&gt;" class="s9" d="m1194 1707.5c2.2 5.3-0.2 11.4-5.5 13.6-5.2 2.2-11.3-0.2-13.5-5.4-2.3-5.3 0.2-11.3 5.4-13.6 5.2-2.2 11.3 0.2 13.6 5.4z"/>
						</g>
						<path id="&lt;Path&gt;" class="s18" d="m1200.5 1696.3l-9.1 15.1-83.3 0.9c-1.6 0-3.1-0.3-4.6-0.8l-14.7-5.3z"/>
						<path id="&lt;Path&gt;" class="s18" d="m1144.2 1449.3c0.2-1.9 3.1-22 27-22.6l17.4-1.8c1.1-0.3 8.5-1.5 14.1 2.8 3.8 2.9 5.9 7.6 6.3 13.8 0.4 8.1-9.8 60.4-14.4 83.8l31.1 6.3c0 0 13.1 5.3 10.5 28.3-2.3 20.2-12.3 133.6-12.3 133.6 0 0-2.1 23.6-52.5 16.7l9.4-187.6 9.4 1.9c6.1-30.6 14.7-75.9 14.3-82.7-0.2-4.9-1.7-8.5-4.4-10.5-4.4-3.4-10.6-2.1-10.7-2.1l-17.8 1.9h-0.2c-21 0.6-22.7 18-22.8 18.7v0.1l-14.8 81.5-4.4-0.8z"/>
						<path id="&lt;Path&gt;" class="s9" d="m1205.7 1553.8l-12.1 127c-0.5 5.1-2.3 9.8-5.1 13.8-5.2 7.3-13.7 12.1-23.3 12.1l-41.7 0.3h-1l-26.1 0.2c-2.7 0-5.2-0.3-7.6-1q-0.8-0.2-1.7-0.5c-9-3-16-10.3-18.5-19.4-1.1-3.8-1.4-8-0.8-12.2l19-121.6c2-12.9 12.5-22.9 25.6-24.1l7.4-0.7 1.7-0.2 1.5-0.1 24.6-2.4 3-0.3 23.8-2.2c3.7-0.4 7.3 0 10.7 1q0.3 0 0.6 0.2l1.4 0.4c11.7 4.4 19.9 16.2 18.6 29.7z"/>
						<path id="&lt;Path&gt;" class="s19" d="m1188.5 1694.6c-5.2 7.3-13.7 12.1-23.3 12.1l-41.7 0.3h-1l-26.1 0.2c-2.7 0-5.2-0.3-7.6-1q-0.8-0.2-1.7-0.5c-9-3-19.4-13.9-19.6-25.5 0 0 88.2-1.2 106.6 1.7 9.6 1.4 12.4 8.1 14.4 12.7z"/>
						<g id="&lt;Group&gt;">
							<path id="&lt;Path&gt;" class="s18" d="m1079.1 1685.3c0.7-5.1 17.7-125.3 20.3-136 2.3-9.4 15.9-18.8 20.4-21.6l1.7-0.2 1.5-0.1c-0.2 0.1-19.5 11.9-22.1 22.2-2.6 10.7-20 134.7-20.2 135.9 0 0.1-0.5 12.1 9.4 21l-1.3-0.3q-0.8-0.2-1.7-0.5c-9.3-9.2-8-19.9-8-20.4z"/>
							<path id="&lt;Path&gt;" class="s18" d="m1133.4 1549.4c2-12.9 9.9-20.9 14.2-24.4l3-0.3c-2.8 1.9-13.4 10-15.6 24.9-2.7 17.5-13.1 144.4-13.2 145.6v0.1 0.1c0 0.1-1.5 6.9 2.8 11.6h-1.1-1c-4.1-5-2.5-11.1-2.2-12 0.3-3.9 10.5-128.3 13.1-145.6z"/>
							<path id="&lt;Path&gt;" class="s18" d="m1169.5 1548.6c2.4-16.3 13.3-23.7 15.6-25.1q0.3 0 0.6 0.2l1.4 0.4c-0.1 0.1-4.1 2.3-7.6 6.3-3.4 3.9-7.2 10-8.5 18.5-2.6 17.4-10.9 143.9-10.9 145.2l-0.1 0.1v0.1c0 0.1-0.4 7.8 3.9 12.4l-2.6 0.1c-3.3-4.3-3.1-12-2.8-12.9 0.3-4 8.3-127.9 11-145.3z"/>
						</g>
					</g>
				</g>
				<g id="&lt;Group&gt;">
					<g id="man 5 ">
						<g id="&lt;Group&gt;">
							<path id="&lt;Path&gt;" class="s15" d="m408.7 1674l1.7-2.3 1.8-2.3 17 4.1c0 0 0.5 4 0.7 9.2 0.2 3.7 0.3 8 0.1 11.8-0.5 9 2.5 18.8 10.5 20.5 6.4 1.4 5.6 5.4 5 6.9h-24.9c-3.5-1.5-6.7-5.7-7.7-12.1-1.2-8.3-10.5-12.8-12.5-19.5-2-6.8 8.3-16.3 8.3-16.3z"/>
							<path id="&lt;Path&gt;" class="s15" d="m534.7 1701.3c0-0.9 0.1-1.4 0.1-1.4 0 0 20.1-16 22.8-3.7q0.1 0.6 0.3 1.1c3.5 11.5 19.1 16.7 28.1 18.2 6.1 1 8.2 4.3 8.9 6.4h-58.6c-3.2-2.8-2.1-16.3-1.6-20.6z"/>
							<path id="&lt;Path&gt;" class="s14" d="m583.6 1393.6c0 0-3.1 38-6.7 83.7-4.8 62.1-10.7 138.3-11.3 152.8-1 25.1-5 65.2-5 65.2 0 0-9.5 9.5-28.6 5.5 0 0-16.9-57.3-21.8-117.9q-0.1-1.5-0.2-3c-4.5-61.7-11.6-191.6-11.6-191.6z"/>
							<path id="&lt;Path&gt;" class="s15" d="m583.6 1393.6c0 0-3.1 38-6.7 83.7l-66.7 105.6q-0.1-1.5-0.2-3c-4.5-61.7-11.6-191.6-11.6-191.6z"/>
							<path id="&lt;Path&gt;" class="s14" d="m569.7 1398.1c0 0-55 137.7-91.1 202.4-36.1 64.7-47.4 82.7-47.4 82.7 0 0-20.7-8.2-22.5-13.9 0 0 13.8-124.9 38-155.3 13.6-17.2 29.7-68.9 30.4-86.9 0.8-18.1 4.9-53.8 4.9-53.8z"/>
						</g>
						<g id="&lt;Group&gt;">
							<path id="&lt;Path&gt;" class="s27" d="m625.2 1360.1l3.1 6.3c0 0 16 2.2 11.6 18.8 0 0-2.4 6.9-6.8 4.7-4.4-2.2-2.2-2-8.5-4.9-6.3-2.9-10-8.5-8.6-13.6l-1-5.5z"/>
						</g>
						<g id="&lt;Group&gt;">
							<path id="&lt;Path&gt;" class="s28" d="m556 1197.4c-21.5 6.8-58.6-11.5-58.6-11.5 0 0 19.8-14.8 18.7-45.7l27.9 22.4c0 0-0.1 8.6-2.5 23 9.2 5.1 14.5 11.8 14.5 11.8z"/>
						</g>
						<g id="&lt;Group&gt;">
							<path id="&lt;Path&gt;" class="s27" d="m550.6 1162.1c0 0-35.5 5.9-38.8-16.2-3.3-22.1-10.1-36.3 12.3-41 22.5-4.7 28.2 3.1 31.1 10.2 2.9 7.1 4.5 44.9-4.6 47z"/>
						</g>
						<path id="&lt;Path&gt;" class="s15" d="m517 1095.4c17.3-3.8 34.2-7.1 34.2-7.1 2.6 3 16 21.5-6.2 24.7-32.3 4.8-33 34.4-33 34.4-3.8-4.4-31.3-44.1 5-52z"/>
						<path id="&lt;Path&gt;" class="s29" d="m613.2 1374.3c0 0-42.3-31.9-56.4-53.4-8.6-13-60.2-119.5-60.2-119.5l61.9 12.6c0 0 24.4 83.2 27.7 88.4 3.3 5.2 43.5 55.2 43.5 55.2 0 0-3.5 6.3-8.2 11.2-3.7 3.8-8.3 5.5-8.3 5.5z"/>
						<path id="&lt;Path&gt;" class="s30" d="m585.9 1396.8c-0.6 0.5-1.4 0.8-2.2 0.8-8.1-0.1-31.6 4.4-51.5 2.3-16.7-1.6-31.6-6.5-47.5-13.7-2.1-0.9-7-3.5-6.9-5.9 0.1-2.6 0.4-6.3 0.7-11.1 1.1-16.4 3.1-44.7 1.2-77.3q-0.6-9.2-0.6-18.1c-0.2-44.2 8.5-83.7 26.2-96.9 1.5-1.1 10.8 4.1 19.3 8.3 7.8 3.8 15.7 4.3 23.1 2.8l7.4 6.5c9 8.4 18.9 19.8 23.2 37.1 3.7 14.7 5.8 41.3 7 68.8 0.5 12.4 1 25 1.1 36.9v0.5c0.1 1.1 0.1 2.4 0.1 3.6 0.4 30.6 0 54.9-0.6 55.4z"/>
						<path id="&lt;Path&gt;" class="s29" d="m478.5 1369.2c1.1-16.4 3.1-44.7 1.2-77.3q-0.6-9.2-0.6-18.1c7.4-17.8 13.4-30.7 13.4-30.7h18.5c0 0 13.5 92.7-32.5 126.1z"/>
						<g id="&lt;Group&gt;">
							<path id="&lt;Path&gt;" class="s18" d="m335 1454.3l14.3-46.2c4.4-13.9 19.3-21.7 33.1-17.4l106.7 33.1c13.9 4.3 21.7 19.2 17.4 33.1l-14.4 46.2c-4.3 13.9-19.2 21.8-33.1 17.4l-106.6-33.1c-13.9-4.3-21.7-19.2-17.4-33.1z"/>
							<path id="&lt;Compound Path&gt;" fill-rule="evenodd" class="s9" d="m320.8 1450.4l14.5-46.7c4.3-14 19.3-21.8 33.2-17.5l36.7 11.4 3.1-10c1.4-4.6 6.3-7.2 10.9-5.7l2.1 0.6 19.1 5.9 10.7 3.4c2.2 0.7 4 2.2 5.1 4.3 1.1 2 1.3 4.4 0.6 6.6l-3.1 10 21.3 6.6q1.2 0.4 2.4 0.9 0 0 0 0 0 0 0 0 0.1 0 0.1 0c12.3 5.3 19 19.2 14.9 32.3l-14.5 46.8c-3.7 12-15.4 19.5-27.5 18.5q0 0 0 0-2.9-0.2-5.7-1.1l-106.5-33.1c-13.9-4.3-21.8-19.2-17.4-33.2zm127.7-39.3l3.1-10c0.5-1.7-0.4-3.6-2.1-4.1l-10.4-3.2-17.8-5.5-3.7-1.2q-0.5-0.1-1-0.1c-1.4 0-2.7 0.9-3.1 2.3l-3.1 9.9z"/>
						</g>
						<g id="&lt;Group&gt;">
							<path id="&lt;Path&gt;" class="s27" d="m442.5 1375l-3.5 6.1c0 0 6.9 14.5-9.5 20 0 0-7 1.7-7.6-3.1-0.6-4.9 0.4-3-0.6-9.9-1-6.8 1.7-12.9 6.8-14.6l4-3.8z"/>
						</g>
						<path id="&lt;Path&gt;" class="s30" d="m424 1372.8c0 0 3.5-52.9 13.8-76.5 6.1-14.3 66.9-115.8 66.9-115.8l23.4 58.6c0 0-56.2 66.1-58.7 71.6-2.6 5.6-22.3 66.7-22.3 66.7 0 0-7.3 0.6-13.9-0.7-5.3-1.1-9.2-3.9-9.2-3.9z"/>
					</g>
				</g>
				<g id="&lt;Group&gt;">
					<path id="&lt;Path&gt;" class="s18" d="m935 1701.4c0 0 18.5-15.4 21.3-3.9 2.9 11.4 18.3 16.3 27 17.5 7 1 8.5 5.3 8.8 6.9h-55.4c-1.1-1.1-1.7-3.6-1.9-6.5-0.6-6.1 0.2-14 0.2-14z"/>
					<path id="&lt;Path&gt;" class="s18" d="m884.6 1701.4c0 0 18.5-15.4 21.4-3.9 2.8 11.4 18.2 16.3 26.9 17.5q1 0.2 1.9 0.4c5.1 1.3 7.5 4.7 8.5 6.5h-57.4c-3-4.4-1.3-20.5-1.3-20.5z"/>
					<path id="&lt;Path&gt;" class="s14" d="m961 1416.4l29.5 2.8c0 0-3.8 33.4-8.3 74.3q-0.3 2-0.5 4.1c-2.8 25.3-5.9 53.1-8.6 77.6-3.4 31.7-6.2 57.7-6.8 65.3-1.7 23.6-6.2 62.4-6.2 62.4 0 0-10.8 6.3-27.5 3 0 0-4.4-17.1-8.8-42.1-3.4-19.6-6.8-44.2-8-69.2q-0.1-1.4-0.1-2.8-0.1-2.7-0.2-5.5c-2-51.9-4-144.8-4.6-168.9 0-3.7-0.1-5.8-0.1-5.8z"/>
					<path id="&lt;Path&gt;" class="s15" d="m910.9 1417.4l50.1-1 29.5 2.8c0 0-3.8 33.4-8.3 74.3q-0.3 2-0.5 4.1c-2.8 25.3-5.9 53.1-8.6 77.6l-49.3 88.6z"/>
					<path id="&lt;Path&gt;" class="s14" d="m985.1 1419.4c0 0-27.6 136.4-50.1 202.3-22.5 65.8-22.8 84.1-22.8 84.1 0 0-20.6 4.4-29.7-0.7 0 0-5.2-124.8 8.4-158 9-21.9 15.9-68.6 13.6-85.4-2.4-16.8-4.6-50.5-4.6-50.5z"/>
					<path id="&lt;Path&gt;" class="s11" d="m951.6 1236.3l-30.7-8.6c0 0 5.2-12.8 7-26.1 1-7.3 1-14.9-1.6-20.5q-0.2-0.5-0.5-1c-1.2-2.2-0.5-3.2 1.1-3.5 2.8-0.4 8.3 1.5 10.6 3.5 3.5 2.9 20.5 11.5 21.3 12q0.1 0 0.1 0 0 0 0 0.4h0.1c0 0.6 0.2 1.8 0.4 3.6 0.9 8.2 1.6 27.2-7.8 40.2z"/>
					<path id="&lt;Path&gt;" class="s9" d="m902.3 1386.7c2.8-14.5 6.5-32 6.5-51.9 0-24-1.9-50.3-0.9-71.1 0.9-18.8 4.1-33.2 13.1-37.5 0 0 41-6.6 50.1 11.3 5.1 10 33.6 69.9 34.1 116.2 0.4 45.4 2.9 57.6-14.6 66.7-3.9 2-9.4 4.1-15.7 6-11.6 3.5-26.3 6.2-39.5 6.4-11.3 0.2-21.6-1.5-28.1-6.1-10.3-7.3-8.5-21.1-5-40z"/>
					<path id="&lt;Path&gt;" class="s19" d="m908.8 1334.8c0-24-1.9-50.3-0.9-71.1 7.8-17.1 20.4-28.2 40.8-25.5 0 0 25.3 99.5 28.8 124.3 4.5 32.5 2.4 52.1-2.6 63.9-11.6 3.5-26.3 6.2-39.5 6.4-9.6-10.7-25.2-29.4-33.1-46.1 2.8-14.5 6.5-32 6.5-51.9z"/>
					<path id="&lt;Compound Path&gt;" fill-rule="evenodd" class="s31" d="m910.6 1465.8h18.5v-5.7c0-9.6 7.8-17.3 17.3-17.3h15.3c9.6 0 17.4 7.7 17.4 17.3v5.7h18.5c5.6 0 10.1 4.6 10.1 10.2v47.1c0 5.6-4.5 10.1-10.1 10.1h-87c-5.6 0-10.2-4.5-10.2-10.1v-47.1c0-5.6 4.6-10.2 10.2-10.2zm61.6-5.7c0-5.8-4.7-10.5-10.5-10.5h-15.3c-5.8 0-10.5 4.7-10.5 10.5v5.7h36.3z"/>
					<path id="&lt;Path&gt;" class="s22" d="m959.4 1431.2c0 0 10.7 20.5 5.3 28.5-5.3 8-24.4-2.2-25.9-6.8-1.5-4.6 0-26.7 0-26.7z"/>
					<path id="&lt;Path&gt;" class="s9" d="m944 1238c25.9-3.9 30.3 8.3 30.3 8.3 0 0-0.4 56.7-8.3 84.9-7.8 28.2-3.7 101.9-3.7 101.9 0 0-3.3 2.5-8.9 3.3-4.8 0.6-17.2-0.4-17.2-0.4 0 0-18.6-62.3-18.5-85.8 0-23.4-4-80-4-80 0 0-0.6-27.7 30.3-32.2z"/>
					<path id="&lt;Path&gt;" class="s9" d="m963.1 1219.4c6.2 5.4 11.2 26.9 11.2 26.9-15.4-15-53.3-20.1-53.3-20.1-1.4-3.9 5.6-26 5.6-26 0 0 30.4 13.8 36.5 19.2z"/>
					<path id="&lt;Path&gt;" class="s20" d="m959.9 1196.1q0 0-0.5 0c-3.4-0.1-24.9 0-30.9 5.1q-0.3 0.3-0.6 0.4c1-7.3 1-14.9-1.6-20.5 0.2-1.7 0.4-3.3 0.6-4.5 2.8-0.4 8.3 1.5 10.6 3.5 3.5 2.9 20.5 11.5 21.3 12l0.1 0.4h0.1z"/>
					<path id="&lt;Path&gt;" class="s11" d="m973.2 1194.7c0 0-35.4 6.8-39.3-15.3-3.9-22.2-11.1-36.2 11.4-41.5 22.5-5.3 28.3 2.4 31.4 9.5 3.1 7.1 5.7 45-3.5 47.3z"/>
					<path id="&lt;Path&gt;" class="s15" d="m927.5 1189c0 0 1.8-1.4-5.3-12.3-7.2-10.9-10.6-7.9-10.7-19.5-0.1-11.6-4.4-18.6 9-26.1 13.5-7.5 11.4-14.5 19.4-16.2 8.1-1.7 19.8 5 26.8 3.6 6.9-1.4 28.6 26.8 14.7 33.5 0 0-6.5 0.3-11-2.5-4.5-2.8-21.2-5.6-23.1-0.5-2 5-12.5 36.1-19.8 40z"/>
				</g>
				<g id="&lt;Group&gt;">
					<path id="&lt;Path&gt;" class="s15" d="m1442.8 1526.1c-27.3-8-38.9-90.8-19.9-100.8 19.1-10 44.3 1.4 44.3 1.4 34.1 170.6-24.4 99.4-24.4 99.4z"/>
					<path id="&lt;Compound Path&gt;" fill-rule="evenodd" class="s32" d="m1511.8 1436.3c1.2-9.7-1.2-27.2-1.2-27.2 0 0 8.6-0.5 13.4 10.8 9.9 23.4 5.6 73.8 5 81.1 0 0 3.4 14.3-1.7 39.1 0.8 1.8 1.8 4.1 2.4 5q0.1 0.1 0.2 0.3c0.7 0.9 0.7 2.2 0.1 3.2l-3.3 5.2c-0.3 0.5-0.7 0.8-1.2 1.1q-0.3 0.1-0.5 0.1l-4.1 1-0.4-13.8q0 0 0 0c-1.4-13.6-9.8-97-8.7-105.9zm10.5 106.9l0.1-0.1-0.2 0.1q0.1 0 0.1 0z"/>
					<path id="&lt;Path&gt;" class="s17" d="m1469.8 1721.9h-27.3l-3.2-11.7c38.7-3.2 30.5 11.7 30.5 11.7z"/>
					<path id="&lt;Path&gt;" class="s17" d="m1528.5 1721.9h-27.4l-3.2-11.7c38.7-3.2 30.6 11.7 30.6 11.7z"/>
					<path id="&lt;Path&gt;" class="s14" d="m1448.6 1339.1c3.4-5.3 8.2-5.5 12.8-10 4.3-4.2 12.4-6.9 18.8-6.9 20.6 0 38.4 12.6 34.3 33.9-1.2 6.8-0.2 12.2-5.7 20.1-6.8 9.9-15.2 17.9-28.6 17.9-7.1 0-13.4-1.7-18.8-6.9-3-2.8-7.3-3.2-9.9-6.2-5.4-6.2-5-14.4-6.9-22.9-1.8-7.7 0.4-13.5 4-19z"/>
					<g id="&lt;Group&gt;">
						<path id="&lt;Path&gt;" class="s32" d="m1494.5 1383.4c0 0-4.5 17.5 4.6 24.9l-25.7 13.1-3.3-17c0 0 4.8-13.2 3.5-31.7z"/>
					</g>
					<g id="&lt;Group&gt;">
						<path id="&lt;Path&gt;" class="s33" d="m1495.1 1392.2c0 0-26.2 3.2-26.8-15.3-0.5-18.5 10.4-30.5 17.7-30.3 14.6 0.2 17 6.1 18.7 12.2 1.7 6.2 2.5 32.1-9.6 33.4z"/>
					</g>
					<path id="&lt;Path&gt;" class="s15" d="m1525.4 1711.1c0 0-5.7 2.2-13.5 2.2-11.3 0-15.6-1.7-15.6-1.7-34.1-84.3-28-175.3-28-175.3l51.9-4.3z"/>
					<path id="&lt;Path&gt;" class="s14" d="m1497.9 1538.3c0 0-8.5 22.8-9.1 27.2l-16.9 146.9c0 0-7.1 2-18.2 2.1-10.3 0.1-17-2.1-17-2.1-13-113.2 3-175.2 3-175.2z"/>
					<path id="&lt;Path&gt;" class="s12" d="m1438.5 1445.3l-3.4-27.9c0.5-0.7 0.9-1.4 1.4-2 6-7.3 28.9-10.5 33.6-11 0.2 0.2 10.8 9 18.4 7.9 6.5-0.8 7.6-4.2 7.4-7.9 13.5 2.2 21.2 6.6 21.2 6.6 13.8 5.1 16.6 51.1 16.6 51.1-1.8-0.6-11 1-15.3 1.8l1.7 68.1c-33 14.4-80.5 5.2-80.5 5.2l0.1-0.4 3.2-54.5-3-24.9z"/>
					<path id="&lt;Path&gt;" class="s12" d="m1499.1 1380.5c0.2 2.6-4.7 2.9-4.7 2.9-5.7 0.4-6.3-1.9-6.3-1.9 6.3-2.7 11-1 11-1z"/>
					<path id="&lt;Path&gt;" class="s30" d="m1459.7 1535c-2.3 2.8-13.4 4.3-20 2.2l3.2-54.9-4.4-37 4.3-2c0 0 18.9 15.1 16.7 27.2-2.2 12.1 3 60.9 0.2 64.5z"/>
					<path id="&lt;Path&gt;" class="s12" d="m1435.1 1417.4c0.5-0.7 0.9-1.4 1.4-2 2-2.2 5.5-4.2 9.6-5.7h0.1c3.4-1.4 7.2-2.3 10.7-3.1 5.6-1.2 10.4-1.9 12.3-2.1 0.6-0.1 0.9-0.1 0.9-0.1l-0.3 0.6-3.5 7.1-3.8 7.5-20.5 39.2c-0.6-0.4-0.2-0.1-1.3-1-5.7-4.7-21.6-9.8-21.6-9.8 0 0 9.3-21.1 16-30.6z"/>
					<path id="&lt;Path&gt;" class="s14" d="m1441.2 1512.1c37.4-54.2 32.3-80.2 21.3-92.5-5.6-6.2-12.6-8.9-16.3-9.9 3.4-1.4 7.2-2.3 10.7-3.1 3.6 1.6 6.7 3.5 9.4 5.5 45.3 33.7-25.7 109.7-25.7 109.7z"/>
					<path id="&lt;Path&gt;" class="s14" d="m1492.5 1346.7c0 0-22.4 0-17.3 15.4 3.3 9.7-7.5 11.2-7.5 11.2 0 0-4.7-11.5-5.2-15.5-0.4-3.1 0.7-10.3 3.2-12.1 5.4-4 26.8 1 26.8 1z"/>
					<path id="&lt;Path&gt;" class="s32" d="m1419.4 1448.2c7 2.1 18.1 6.5 21.3 9.6-3.6 8.1-5.9 13.8-5.9 13.8 2.7-1.2 16.4-2.3 23.5-2.8q0 0 0 0c0.8-0.1 7.3-2.2 7.3-2.2 0 0 0-11.1 12.7-12 0 0 5.3 0 4.2 3.7-1.1 3.6-1.2 2-2.6 7.1-1.4 5.2-5.1 9.1-9 9.3-18.9 15.8-44.8 16-52.6 15.6-1.4-0.1-2.6-1-2.9-2.4-3-12.9-1.2-26.2 4-39.7z"/>
				</g>
			</g>
			<path id="&lt;Path&gt;" class="s34" d="m2786 1724.1h-2574c-1.1 0-2-1-2-2.1v-0.2c0-1.1 0.9-2 2-2h2574c1.1 0 2 0.9 2 2v0.2c0 1.1-0.9 2.1-2 2.1z"/>
		</g>
	</g>
</svg>